<?xml version="1.0" encoding="UTF-8"?>
<svg xmlns="http://www.w3.org/2000/svg" version="1.1" xmlns:xlink="http://www.w3.org/1999/xlink" viewBox="0 0 669.9 139.8">
  <defs>
    <style>
      .cls-1 {
        fill: url(#linear-gradient-2);
      }

      .cls-2 {
        fill: url(#linear-gradient-4);
      }

      .cls-3 {
        fill: url(#linear-gradient-3);
      }

      .cls-4 {
        fill: url(#linear-gradient-5);
      }

      .cls-5 {
        fill: url(#linear-gradient);
      }
    </style>
    <linearGradient id="linear-gradient" x1="58.6" y1="20.3" x2="58.6" y2="155.6" gradientTransform="translate(0 157.9) scale(1 -1)" gradientUnits="userSpaceOnUse">
      <stop offset="0" stop-color="#14264d"/>
      <stop offset="1" stop-color="#316692"/>
    </linearGradient>
    <linearGradient id="linear-gradient-2" x1="209" y1="18.1" x2="209" y2="157.9" gradientTransform="translate(0 157.9) scale(1 -1)" gradientUnits="userSpaceOnUse">
      <stop offset="0" stop-color="#14264d"/>
      <stop offset="1" stop-color="#316692"/>
    </linearGradient>
    <linearGradient id="linear-gradient-3" x1="357.1" y1="20.3" x2="357.1" y2="155.6" gradientTransform="translate(0 157.9) scale(1 -1)" gradientUnits="userSpaceOnUse">
      <stop offset="0" stop-color="#14264d"/>
      <stop offset="1" stop-color="#316692"/>
    </linearGradient>
    <linearGradient id="linear-gradient-4" x1="474.4" y1="20.3" x2="474.4" y2="155.6" gradientTransform="translate(0 157.9) scale(1 -1)" gradientUnits="userSpaceOnUse">
      <stop offset="0" stop-color="#14264d"/>
      <stop offset="1" stop-color="#316692"/>
    </linearGradient>
    <linearGradient id="linear-gradient-5" x1="606.4" y1="20.3" x2="606.4" y2="155.6" gradientTransform="translate(0 157.9) scale(1 -1)" gradientUnits="userSpaceOnUse">
      <stop offset="0" stop-color="#14264d"/>
      <stop offset="1" stop-color="#316692"/>
    </linearGradient>
  </defs>
  <!-- Generator: Adobe Illustrator 28.7.1, SVG Export Plug-In . SVG Version: 1.2.0 Build 142)  -->
  <g>
    <g id="Layer_3">
      <path class="cls-5" d="M1.4,2.3h33.5l37.5,63.2c5.3,8.9,11.3,23.1,11.3,23.1h.4s-1.5-14.6-1.5-23.1V2.3h33.1v135.3h-33.3l-37.7-63c-5.3-8.9-11.3-23.1-11.3-23.1h-.4s1.5,14.6,1.5,23.1v63H1.4V2.3h0Z"/>
      <path class="cls-1" d="M209,0C249.9,0,279.8,30.3,279.8,69.1s-29.9,70.8-70.8,70.8-70.8-31-70.8-70.8S168.1,0,209,0h0ZM209,109.6c20.2,0,36.5-17.4,36.5-40.5s-16.3-38.8-36.5-38.8-36.5,16.6-36.5,38.8,16.3,40.5,36.5,40.5Z"/>
      <path class="cls-3" d="M302.3,2.3h47.1c13.8,0,20.4.9,26.3,3.2,15.3,5.9,25,19.7,25,39.4s-6.8,30.1-20.2,36.9v.4s1.9,2.5,5.1,8.1l26.3,47.3h-36.9l-24-45.6h-15.5v45.6h-33.1V2.3h0ZM349.8,63.6c10.6,0,17.2-5.9,17.2-16.6s-3.8-16.3-20.4-16.3h-11.2v32.9h14.4Z"/>
      <path class="cls-2" d="M457.8,30.7h-41.1V2.3h115.2v28.4h-41.1v106.9h-33.1V30.6h0Z"/>
      <path class="cls-4" d="M548.7,2.3h33.1v54.1h49.2V2.3h33.1v135.3h-33.1v-53h-49.2v53h-33.1V2.3h0Z"/>
    </g>
  </g>
</svg>