<?xml version="1.0" encoding="UTF-8"?>
<svg id="Layer_2" data-name="Layer 2" xmlns="http://www.w3.org/2000/svg" xmlns:xlink="http://www.w3.org/1999/xlink" viewBox="0 0 678.44 565.02">
  <defs>
    <style>
      .cls-1 {
        fill: url(#linear-gradient);
      }

      .cls-2 {
        fill: url(#linear-gradient-3);
      }

      .cls-3 {
        fill: url(#linear-gradient-4);
      }

      .cls-4 {
        fill: url(#linear-gradient-2);
      }

      .cls-5 {
        fill: url(#linear-gradient-5);
      }
    </style>
    <linearGradient id="linear-gradient" x1="58.78" y1="346.67" x2="58.78" y2="203.25" gradientUnits="userSpaceOnUse">
      <stop offset=".01" stop-color="#e06334"/>
      <stop offset="1" stop-color="#faa61b"/>
    </linearGradient>
    <linearGradient id="linear-gradient-2" x1="194.93" x2="194.93" xlink:href="#linear-gradient"/>
    <linearGradient id="linear-gradient-3" x1="346.7" x2="346.7" y2="205.57" xlink:href="#linear-gradient"/>
    <linearGradient id="linear-gradient-4" x1="478.96" y1="344.34" x2="478.96" y2="205.57" xlink:href="#linear-gradient"/>
    <linearGradient id="linear-gradient-5" x1="614.33" y1="344.34" x2="614.33" y2="205.57" xlink:href="#linear-gradient"/>
  </defs>
  <path class="cls-1" d="m26.86,301.06s15.72,14.36,33.19,14.36c6.99,0,14.55-2.72,14.55-11.06,0-16.5-62.49-15.91-62.49-58.61,0-25.62,21.54-42.5,49.1-42.5,29.89,0,44.64,15.72,44.64,15.72l-14.36,27.75s-13.98-12.23-30.67-12.23c-6.99,0-14.75,3.11-14.75,10.87,0,17.47,62.49,14.36,62.49,58.23,0,23.09-17.66,43.09-48.91,43.09s-50.66-19.8-50.66-19.8l17.86-25.81Z"/>
  <path class="cls-4" d="m194.93,203.25c41.92,0,72.59,31.05,72.59,70.84s-30.67,72.59-72.59,72.59-72.59-31.83-72.59-72.59,30.67-70.84,72.59-70.84Zm0,112.37c20.77,0,37.46-17.86,37.46-41.54s-16.69-39.79-37.46-39.79-37.46,17.08-37.46,39.79,16.69,41.54,37.46,41.54Z"/>
  <path class="cls-2" d="m288.67,205.57h33.96v87.73c0,14.55,9.51,22.32,24.07,22.32s24.06-7.76,24.06-22.32v-87.73h33.96v87.73c0,31.25-22.9,53.37-57.84,53.37s-58.23-22.13-58.23-53.37v-87.73Z"/>
  <path class="cls-3" d="m461.98,234.69h-42.12v-29.11h118.2v29.11h-42.12v109.66h-33.96v-109.66Z"/>
  <path class="cls-5" d="m555.14,205.57h33.96v55.51h50.46v-55.51h33.96v138.77h-33.96v-54.34h-50.46v54.34h-33.96v-138.77Z"/>
</svg>