<?xml version="1.0" encoding="UTF-8"?>
<svg xmlns="http://www.w3.org/2000/svg" version="1.1" xmlns:xlink="http://www.w3.org/1999/xlink" viewBox="0 0 668.3 57.2">
  <defs>
    <style>
      .cls-1 {
        fill: url(#linear-gradient-13);
      }

      .cls-2 {
        fill: url(#linear-gradient-2);
      }

      .cls-3 {
        fill: url(#linear-gradient-10);
      }

      .cls-4 {
        fill: url(#linear-gradient-12);
      }

      .cls-5 {
        fill: url(#linear-gradient-4);
      }

      .cls-6 {
        fill: url(#linear-gradient-3);
      }

      .cls-7 {
        fill: url(#linear-gradient-5);
      }

      .cls-8 {
        fill: url(#linear-gradient-8);
      }

      .cls-9 {
        fill: url(#linear-gradient-7);
      }

      .cls-10 {
        fill: url(#linear-gradient-9);
      }

      .cls-11 {
        fill: url(#linear-gradient-11);
      }

      .cls-12 {
        fill: url(#linear-gradient-6);
      }

      .cls-13 {
        fill: url(#linear-gradient);
      }
    </style>
    <linearGradient id="linear-gradient" x1="19.9" y1="18.1" x2="19.9" y2="75.3" gradientTransform="translate(0 75.3) scale(1 -1)" gradientUnits="userSpaceOnUse">
      <stop offset="0" stop-color="#e06334"/>
      <stop offset="1" stop-color="#faa61b"/>
    </linearGradient>
    <linearGradient id="linear-gradient-2" x1="74.2" y1="18.1" x2="74.2" y2="75.3" gradientTransform="translate(0 75.3) scale(1 -1)" gradientUnits="userSpaceOnUse">
      <stop offset="0" stop-color="#e06334"/>
      <stop offset="1" stop-color="#faa61b"/>
    </linearGradient>
    <linearGradient id="linear-gradient-3" x1="134.7" y1="18.1" x2="134.7" y2="74.4" gradientTransform="translate(0 75.3) scale(1 -1)" gradientUnits="userSpaceOnUse">
      <stop offset="0" stop-color="#e06334"/>
      <stop offset="1" stop-color="#faa61b"/>
    </linearGradient>
    <linearGradient id="linear-gradient-4" x1="187.5" y1="19" x2="187.5" y2="74.4" gradientTransform="translate(0 75.3) scale(1 -1)" gradientUnits="userSpaceOnUse">
      <stop offset="0" stop-color="#e06334"/>
      <stop offset="1" stop-color="#faa61b"/>
    </linearGradient>
    <linearGradient id="linear-gradient-5" x1="241.5" y1="19" x2="241.5" y2="74.4" gradientTransform="translate(0 75.3) scale(1 -1)" gradientUnits="userSpaceOnUse">
      <stop offset="0" stop-color="#e06334"/>
      <stop offset="1" stop-color="#faa61b"/>
    </linearGradient>
    <linearGradient id="linear-gradient-6" x1="316.6" y1="19" x2="316.6" y2="74.4" gradientTransform="translate(0 75.3) scale(1 -1)" gradientUnits="userSpaceOnUse">
      <stop offset="0" stop-color="#e06334"/>
      <stop offset="1" stop-color="#faa61b"/>
    </linearGradient>
    <linearGradient id="linear-gradient-7" x1="369.2" y1="18.1" x2="369.2" y2="74.4" gradientTransform="translate(0 75.3) scale(1 -1)" gradientUnits="userSpaceOnUse">
      <stop offset="0" stop-color="#e06334"/>
      <stop offset="1" stop-color="#faa61b"/>
    </linearGradient>
    <linearGradient id="linear-gradient-8" x1="411.4" y1="19" x2="411.4" y2="74.4" gradientTransform="translate(0 75.3) scale(1 -1)" gradientUnits="userSpaceOnUse">
      <stop offset="0" stop-color="#e06334"/>
      <stop offset="1" stop-color="#faa61b"/>
    </linearGradient>
    <linearGradient id="linear-gradient-9" x1="449.3" y1="19" x2="449.3" y2="74.4" gradientTransform="translate(0 75.3) scale(1 -1)" gradientUnits="userSpaceOnUse">
      <stop offset="0" stop-color="#e06334"/>
      <stop offset="1" stop-color="#faa61b"/>
    </linearGradient>
    <linearGradient id="linear-gradient-10" x1="498.9" y1="19" x2="498.9" y2="74.4" gradientTransform="translate(0 75.3) scale(1 -1)" gradientUnits="userSpaceOnUse">
      <stop offset="0" stop-color="#e06334"/>
      <stop offset="1" stop-color="#faa61b"/>
    </linearGradient>
    <linearGradient id="linear-gradient-11" x1="539.3" y1="19" x2="539.3" y2="74.4" gradientTransform="translate(0 75.3) scale(1 -1)" gradientUnits="userSpaceOnUse">
      <stop offset="0" stop-color="#e06334"/>
      <stop offset="1" stop-color="#faa61b"/>
    </linearGradient>
    <linearGradient id="linear-gradient-12" x1="582.5" y1="19" x2="582.5" y2="74.4" gradientTransform="translate(0 75.3) scale(1 -1)" gradientUnits="userSpaceOnUse">
      <stop offset="0" stop-color="#e06334"/>
      <stop offset="1" stop-color="#faa61b"/>
    </linearGradient>
    <linearGradient id="linear-gradient-13" x1="641.7" y1="18.1" x2="641.7" y2="75.3" gradientTransform="translate(0 75.3) scale(1 -1)" gradientUnits="userSpaceOnUse">
      <stop offset="0" stop-color="#e06334"/>
      <stop offset="1" stop-color="#faa61b"/>
    </linearGradient>
  </defs>
  <!-- Generator: Adobe Illustrator 28.7.1, SVG Export Plug-In . SVG Version: 1.2.0 Build 142)  -->
  <g>
    <g id="Layer_4">
      <path class="cls-13" d="M7.1,39s6.3,5.7,13.2,5.7,5.8-1.1,5.8-4.4c0-6.6-24.9-6.4-24.9-23.4S9.8,0,20.8,0s17.8,6.3,17.8,6.3l-5.7,11.1s-5.6-4.9-12.2-4.9-5.9,1.2-5.9,4.3c0,7,24.9,5.7,24.9,23.2s-7,17.2-19.5,17.2S0,49.3,0,49.3l7.1-10.3h0Z"/>
      <path class="cls-2" d="M74.2,0c16.7,0,29,12.4,29,28.3s-12.2,29-29,29-29-12.7-29-29S57.4,0,74.2,0h0ZM74.2,44.8c8.3,0,14.9-7.1,14.9-16.6s-6.7-15.9-14.9-15.9-14.9,6.8-14.9,15.9,6.7,16.6,14.9,16.6Z"/>
      <path class="cls-6" d="M111.6.9h13.6v35c0,5.8,3.8,8.9,9.6,8.9s9.6-3.1,9.6-8.9V.9h13.6v35c0,12.5-9.1,21.3-23.1,21.3s-23.2-8.8-23.2-21.3V.9h0Z"/>
      <path class="cls-5" d="M180.7,12.6h-16.8V.9h47.2v11.6h-16.8v43.8h-13.6V12.6Z"/>
      <path class="cls-7" d="M217.9.9h13.6v22.1h20.1V.9h13.5v55.4h-13.5v-21.7h-20.1v21.7h-13.6V.9h0Z"/>
      <path class="cls-12" d="M295.8.9h20.4c11.1,0,18.8,5,18.8,14.5s-2.2,9.4-6.4,11.8v.2c6.4,1.9,8.7,7.6,8.7,12.5,0,12.1-10.1,16.5-21.1,16.5h-20.4V.9h0ZM316.4,22.4c3.4,0,4.9-2.5,4.9-5.1s-1.5-4.7-5.1-4.7h-6.7v9.8h7,0ZM317.5,44.7c4,0,5.9-2.7,5.9-5.8s-1.9-5.6-5.8-5.6h-8.2v11.5h8.1Z"/>
      <path class="cls-9" d="M346.1.9h13.5v35c0,5.8,3.8,8.9,9.6,8.9s9.6-3.1,9.6-8.9V.9h13.5v35c0,12.5-9.1,21.3-23.1,21.3s-23.2-8.8-23.2-21.3V.9h0Z"/>
      <path class="cls-8" d="M404.6.9h13.5v55.4h-13.5V.9h0Z"/>
      <path class="cls-10" d="M431.2.9h13.5v43.7h22.6v11.6h-36.2V.9h0Z"/>
      <path class="cls-3" d="M474.8.9h19.7c17.4,0,28.6,10.1,28.6,27.6s-11.2,27.8-28.6,27.8h-19.7V.9h0ZM493.9,44.7c9.4,0,15.1-5.6,15.1-16.2s-6-16-15.1-16h-5.6v32.1h5.6Z"/>
      <path class="cls-11" d="M532.5.9h13.5v55.4h-13.5V.9h0Z"/>
      <path class="cls-4" d="M559.1.9h13.7l15.3,25.9c2.2,3.6,4.7,9.5,4.7,9.5h.2s-.6-6-.6-9.5V.9h13.5v55.4h-13.6l-15.4-25.8c-2.2-3.6-4.6-9.5-4.6-9.5h-.2s.6,6,.6,9.5v25.8h-13.5V.9h0Z"/>
      <path class="cls-1" d="M644.2,0c14.2,0,21.3,7.4,21.3,7.4l-6.5,10.1s-5.7-5.1-13.5-5.1c-11.6,0-16.3,7.4-16.3,15.6s7.3,16.8,15.9,16.8,11.2-4,11.2-4v-4.3h-7.8v-11.5h19.8v31.3h-11.3v-1.5c0-1.2,0-2.3,0-2.3h-.2s-5.3,4.8-14.6,4.8c-14.2,0-27.2-10.6-27.2-28.7s12.2-28.5,29-28.5h0Z"/>
    </g>
  </g>
</svg>