<?xml version="1.0" encoding="UTF-8"?>
<svg xmlns="http://www.w3.org/2000/svg" version="1.1" xmlns:xlink="http://www.w3.org/1999/xlink" viewBox="0 0 676.4 154.1">
  <defs>
    <style>
      .cls-1 {
        fill: #e6e6e5;
      }

      .cls-2 {
        fill: #a19078;
      }

      .cls-3 {
        stroke-width: .2px;
      }

      .cls-3, .cls-4, .cls-5 {
        fill: none;
      }

      .cls-3, .cls-5 {
        stroke: #71acca;
        stroke-miterlimit: 10;
      }

      .cls-6 {
        fill: #136cb2;
      }

      .cls-7 {
        fill: #003057;
      }

      .cls-8 {
        clip-path: url(#clippath-1);
      }

      .cls-9 {
        fill: #09598d;
      }

      .cls-10 {
        fill: url(#PLS);
      }

      .cls-11 {
        clip-path: url(#clippath-3);
      }

      .cls-12 {
        fill: #273c63;
      }

      .cls-13 {
        fill: #fff5ec;
      }

      .cls-14 {
        clip-path: url(#clippath-2);
      }

      .cls-15 {
        fill: #cfc1a7;
      }

      .cls-16 {
        fill: #4867a1;
      }

      .cls-17 {
        clip-path: url(#clippath);
      }
    </style>
    <clipPath id="clippath">
      <rect class="cls-4" x="392.8" y="46.4" width="29.4" height="44.6"/>
    </clipPath>
    <clipPath id="clippath-1">
      <rect class="cls-4" x="423.9" y="46.4" width="29.4" height="44.6"/>
    </clipPath>
    <clipPath id="clippath-2">
      <rect class="cls-4" x="392.9" y="99.7" width="29.4" height="44.6"/>
    </clipPath>
    <clipPath id="clippath-3">
      <rect class="cls-4" x="424" y="99.7" width="29.4" height="44.6"/>
    </clipPath>
    <pattern id="PLS" x="0" y="0" width="342" height="334.6" patternTransform="translate(-18766.8 -12622.9) scale(.5 -.6)" patternUnits="userSpaceOnUse" viewBox="0 0 342 334.6">
      <g>
        <rect class="cls-4" width="342" height="334.6"/>
        <g>
          <rect class="cls-4" width="342" height="334.6"/>
          <g>
            <polygon class="cls-15" points="327.1 20.2 334.5 14 341.8 20.2 341.8 60.7 334.5 66.9 327.1 60.7 327.1 20.2"/>
            <polygon class="cls-2" points="329.8 44.6 334.5 40.5 339.1 44.6 339.1 59.3 334.5 63.4 329.8 59.3 329.8 44.6"/>
            <polygon class="cls-2" points="329.8 20.4 334.5 16.3 339.1 20.4 339.1 35.1 334.5 39.3 329.8 35.1 329.8 20.4"/>
            <polygon class="cls-15" points="335.8 1.2 343.2 -4.2 350.6 1.4 350.6 11.7 343.2 17.9 335.8 11.7 335.8 1.2"/>
            <polygon class="cls-2" points="338.5 3.5 343.2 0 347.9 3.5 347.9 10.2 343.2 13.7 338.5 10.2 338.5 3.5"/>
            <polygon class="cls-15" points="309.9 20.2 317.3 14 324.7 20.2 324.7 60.7 317.3 66.9 309.9 60.7 309.9 20.2"/>
            <polygon class="cls-2" points="312.6 44.6 317.3 40.5 322 44.6 322 59.3 317.3 63.4 312.6 59.3 312.6 44.6"/>
            <polygon class="cls-2" points="312.6 20.4 317.3 16.3 322 20.4 322 35.1 317.3 39.3 312.6 35.1 312.6 20.4"/>
            <polygon class="cls-15" points="301.6 1.2 309 -4.2 316.4 1.4 316.4 11.7 309 17.9 301.6 11.7 301.6 1.2"/>
            <polygon class="cls-2" points="304.3 3.5 309 0 313.7 3.5 313.7 10.2 309 13.7 304.3 10.2 304.3 3.5"/>
            <polygon class="cls-12" points="292.8 20.2 300.2 14 307.6 20.2 307.6 60.7 300.2 66.9 292.8 60.7 292.8 20.2"/>
            <polygon class="cls-16" points="295.4 20.2 305 20.2 305 39.3 295.4 39.3 295.4 20.2"/>
          </g>
          <g>
            <polygon class="cls-15" points="173.2 20.2 180.6 14 188 20.2 188 60.7 180.6 66.9 173.2 60.7 173.2 20.2"/>
            <polygon class="cls-2" points="175.9 44.6 180.6 40.5 185.3 44.6 185.3 59.3 180.6 63.4 175.9 59.3 175.9 44.6"/>
            <polygon class="cls-2" points="175.9 20.4 180.6 16.3 185.3 20.4 185.3 35.1 180.6 39.3 175.9 35.1 175.9 20.4"/>
            <polygon class="cls-15" points="156.1 20.2 163.4 14 170.8 20.2 170.8 60.7 163.4 66.9 156.1 60.7 156.1 20.2"/>
            <polygon class="cls-2" points="158.8 44.6 163.4 40.5 168.1 44.6 168.1 59.3 163.4 63.4 158.8 59.3 158.8 44.6"/>
            <polygon class="cls-2" points="158.8 20.4 163.4 16.3 168.1 20.4 168.1 35.1 163.4 39.3 158.8 35.1 158.8 20.4"/>
            <polygon class="cls-15" points="164.8 1.2 172.2 -4.2 179.6 1.4 179.6 11.7 172.2 17.9 164.8 11.7 164.8 1.2"/>
            <polygon class="cls-2" points="167.5 3.5 172.2 0 176.9 3.5 176.9 10.2 172.2 13.7 167.5 10.2 167.5 3.5"/>
            <polygon class="cls-15" points="138.9 20.2 146.3 14 153.7 20.2 153.7 60.7 146.3 66.9 138.9 60.7 138.9 20.2"/>
            <polygon class="cls-2" points="141.6 44.6 146.3 40.5 151 44.6 151 59.3 146.3 63.4 141.6 59.3 141.6 44.6"/>
            <polygon class="cls-2" points="141.6 20.4 146.3 16.3 151 20.4 151 35.1 146.3 39.3 141.6 35.1 141.6 20.4"/>
            <polygon class="cls-15" points="130.6 1.2 138 -4.2 145.4 1.4 145.4 11.7 138 17.9 130.6 11.7 130.6 1.2"/>
            <polygon class="cls-2" points="133.3 3.5 138 0 142.7 3.5 142.7 10.2 138 13.7 133.3 10.2 133.3 3.5"/>
            <polygon class="cls-12" points="121.8 20.2 129.2 14 136.6 20.2 136.6 60.7 129.2 66.9 121.8 60.7 121.8 20.2"/>
            <polygon class="cls-16" points="124.4 20.2 134.1 20.2 134.1 39.3 124.4 39.3 124.4 20.2"/>
            <polygon class="cls-15" points="205.1 20.2 197.7 14 190.3 20.2 190.3 60.7 197.7 66.9 205.1 60.7 205.1 20.2"/>
            <polygon class="cls-2" points="202.4 44.6 197.7 40.5 193 44.6 193 59.3 197.7 63.4 202.4 59.3 202.4 44.6"/>
            <polygon class="cls-2" points="202.4 20.4 197.7 16.3 193 20.4 193 35.1 197.7 39.3 202.4 35.1 202.4 20.4"/>
            <polygon class="cls-15" points="213.8 1.2 206.4 -4.2 199 1.4 199 11.7 206.4 17.9 213.8 11.7 213.8 1.2"/>
            <polygon class="cls-2" points="211.1 3.5 206.4 0 201.7 3.5 201.7 10.2 206.4 13.7 211.1 10.2 211.1 3.5"/>
            <polygon class="cls-12" points="222.2 20.2 214.8 14 207.4 20.2 207.4 60.7 214.8 66.9 222.2 60.7 222.2 20.2"/>
            <rect class="cls-16" x="210" y="20.2" width="9.7" height="19.1"/>
            <polygon class="cls-15" points="241.6 20.2 249 14 256.4 20.2 256.4 60.7 249 66.9 241.6 60.7 241.6 20.2"/>
            <polygon class="cls-2" points="244.3 44.6 249 40.5 253.7 44.6 253.7 59.3 249 63.4 244.3 59.3 244.3 44.6"/>
            <polygon class="cls-2" points="244.3 20.4 249 16.3 253.7 20.4 253.7 35.1 249 39.3 244.3 35.1 244.3 20.4"/>
            <polygon class="cls-15" points="224.5 20.2 231.9 14 239.3 20.2 239.3 60.7 231.9 66.9 224.5 60.7 224.5 20.2"/>
            <polygon class="cls-2" points="227.2 44.6 231.9 40.5 236.6 44.6 236.6 59.3 231.9 63.4 227.2 59.3 227.2 44.6"/>
            <polygon class="cls-2" points="227.2 20.4 231.9 16.3 236.6 20.4 236.6 35.1 231.9 39.3 227.2 35.1 227.2 20.4"/>
            <polygon class="cls-15" points="233.1 1.2 240.5 -4.2 247.9 1.4 247.9 11.7 240.5 17.9 233.1 11.7 233.1 1.2"/>
            <polygon class="cls-2" points="235.8 3.5 240.5 0 245.2 3.5 245.2 10.2 240.5 13.7 235.8 10.2 235.8 3.5"/>
            <polygon class="cls-15" points="275.9 20.2 283.3 14 290.7 20.2 290.7 60.7 283.3 66.9 275.9 60.7 275.9 20.2"/>
            <polygon class="cls-2" points="278.6 44.6 283.3 40.5 288 44.6 288 59.3 283.3 63.4 278.6 59.3 278.6 44.6"/>
            <polygon class="cls-2" points="278.6 20.4 283.3 16.3 288 20.4 288 35.1 283.3 39.3 278.6 35.1 278.6 20.4"/>
            <polygon class="cls-15" points="258.8 20.2 266.1 14 273.5 20.2 273.5 60.7 266.1 66.9 258.8 60.7 258.8 20.2"/>
            <polygon class="cls-2" points="261.5 44.6 266.1 40.5 270.9 44.6 270.9 59.3 266.1 63.4 261.5 59.3 261.5 44.6"/>
            <polygon class="cls-2" points="261.5 20.4 266.1 16.3 270.9 20.4 270.9 35.1 266.1 39.3 261.5 35.1 261.5 20.4"/>
            <polygon class="cls-15" points="267.3 1.2 274.7 -4.2 282.1 1.4 282.1 11.7 274.7 17.9 267.3 11.7 267.3 1.2"/>
            <polygon class="cls-2" points="270 3.5 274.7 0 279.4 3.5 279.4 10.2 274.7 13.7 270 10.2 270 3.5"/>
          </g>
          <g>
            <polygon class="cls-15" points="2.2 20.2 9.6 14 17 20.2 17 60.7 9.6 66.9 2.2 60.7 2.2 20.2"/>
            <polygon class="cls-2" points="4.9 44.6 9.6 40.5 14.3 44.6 14.3 59.3 9.6 63.4 4.9 59.3 4.9 44.6"/>
            <polygon class="cls-2" points="4.9 20.4 9.6 16.3 14.3 20.4 14.3 35.1 9.6 39.3 4.9 35.1 4.9 20.4"/>
            <polygon class="cls-15" points="-6.2 1.2 1.2 -4.2 8.6 1.4 8.6 11.7 1.2 17.9 -6.2 11.7 -6.2 1.2"/>
            <polygon class="cls-2" points="-3.5 3.5 1.2 0 5.9 3.5 5.9 10.2 1.2 13.7 -3.5 10.2 -3.5 3.5"/>
            <polygon class="cls-15" points="34.1 20.2 26.7 14 19.3 20.2 19.3 60.7 26.7 66.9 34.1 60.7 34.1 20.2"/>
            <polygon class="cls-2" points="31.4 44.6 26.7 40.5 22 44.6 22 59.3 26.7 63.4 31.4 59.3 31.4 44.6"/>
            <polygon class="cls-2" points="31.4 20.4 26.7 16.3 22 20.4 22 35.1 26.7 39.3 31.4 35.1 31.4 20.4"/>
            <polygon class="cls-15" points="42.8 1.2 35.3 -4.2 28 1.4 28 11.7 35.3 17.9 42.8 11.7 42.8 1.2"/>
            <polygon class="cls-2" points="40 3.5 35.3 0 30.7 3.5 30.7 10.2 35.3 13.7 40 10.2 40 3.5"/>
            <polygon class="cls-12" points="51.2 20.2 43.8 14 36.4 20.2 36.4 60.7 43.8 66.9 51.2 60.7 51.2 20.2"/>
            <rect class="cls-16" x="39" y="20.2" width="9.7" height="19.1"/>
            <polygon class="cls-15" points="70.6 20.2 78 14 85.4 20.2 85.4 60.7 78 66.9 70.6 60.7 70.6 20.2"/>
            <polygon class="cls-2" points="73.3 44.6 78 40.5 82.7 44.6 82.7 59.3 78 63.4 73.3 59.3 73.3 44.6"/>
            <polygon class="cls-2" points="73.3 20.4 78 16.3 82.7 20.4 82.7 35.1 78 39.3 73.3 35.1 73.3 20.4"/>
            <polygon class="cls-15" points="53.5 20.2 60.9 14 68.3 20.2 68.3 60.7 60.9 66.9 53.5 60.7 53.5 20.2"/>
            <polygon class="cls-2" points="56.2 44.6 60.9 40.5 65.6 44.6 65.6 59.3 60.9 63.4 56.2 59.3 56.2 44.6"/>
            <polygon class="cls-2" points="56.2 20.4 60.9 16.3 65.6 20.4 65.6 35.1 60.9 39.3 56.2 35.1 56.2 20.4"/>
            <polygon class="cls-15" points="62.1 1.2 69.5 -4.2 76.9 1.4 76.9 11.7 69.5 17.9 62.1 11.7 62.1 1.2"/>
            <polygon class="cls-2" points="64.8 3.5 69.5 0 74.2 3.5 74.2 10.2 69.5 13.7 64.8 10.2 64.8 3.5"/>
            <polygon class="cls-15" points="104.9 20.2 112.3 14 119.7 20.2 119.7 60.7 112.3 66.9 104.9 60.7 104.9 20.2"/>
            <polygon class="cls-2" points="107.6 44.6 112.3 40.5 117 44.6 117 59.3 112.3 63.4 107.6 59.3 107.6 44.6"/>
            <polygon class="cls-2" points="107.6 20.4 112.3 16.3 117 20.4 117 35.1 112.3 39.3 107.6 35.1 107.6 20.4"/>
            <polygon class="cls-15" points="87.8 20.2 95.2 14 102.6 20.2 102.6 60.7 95.2 66.9 87.8 60.7 87.8 20.2"/>
            <polygon class="cls-2" points="90.5 44.6 95.2 40.5 99.8 44.6 99.8 59.3 95.2 63.4 90.5 59.3 90.5 44.6"/>
            <polygon class="cls-2" points="90.5 20.4 95.2 16.3 99.8 20.4 99.8 35.1 95.2 39.3 90.5 35.1 90.5 20.4"/>
            <polygon class="cls-15" points="96.3 1.2 103.7 -4.2 111.1 1.4 111.1 11.7 103.7 17.9 96.3 11.7 96.3 1.2"/>
            <polygon class="cls-2" points="99 3.5 103.7 0 108.4 3.5 108.4 10.2 103.7 13.7 99 10.2 99 3.5"/>
          </g>
          <g>
            <polygon class="cls-15" points="241.6 87.1 249 80.9 256.4 87.1 256.4 127.7 249 133.9 241.6 127.7 241.6 87.1"/>
            <polygon class="cls-2" points="244.3 111.5 249 107.4 253.7 111.5 253.7 126.2 249 130.4 244.3 126.2 244.3 111.5"/>
            <polygon class="cls-2" points="244.3 87.4 249 83.2 253.7 87.4 253.7 102 249 106.2 244.3 102 244.3 87.4"/>
            <polygon class="cls-15" points="224.5 87.1 231.9 80.9 239.2 87.1 239.2 127.7 231.9 133.9 224.5 127.7 224.5 87.1"/>
            <polygon class="cls-2" points="227.2 111.5 231.9 107.4 236.6 111.5 236.6 126.2 231.9 130.4 227.2 126.2 227.2 111.5"/>
            <polygon class="cls-2" points="227.2 87.4 231.9 83.2 236.6 87.4 236.6 102 231.9 106.2 227.2 102 227.2 87.4"/>
            <polygon class="cls-15" points="233.2 68.1 240.6 62.7 248 68.3 248 78.6 240.6 84.8 233.2 78.6 233.2 68.1"/>
            <polygon class="cls-2" points="235.9 70.4 240.6 66.9 245.3 70.4 245.3 77.1 240.6 80.6 235.9 77.1 235.9 70.4"/>
            <polygon class="cls-15" points="207.3 87.1 214.7 80.9 222.1 87.1 222.1 127.7 214.7 133.9 207.3 127.7 207.3 87.1"/>
            <polygon class="cls-2" points="210 111.5 214.7 107.4 219.4 111.5 219.4 126.2 214.7 130.4 210 126.2 210 111.5"/>
            <polygon class="cls-2" points="210 87.4 214.7 83.2 219.4 87.4 219.4 102 214.7 106.2 210 102 210 87.4"/>
            <polygon class="cls-15" points="199 68.1 206.4 62.7 213.8 68.3 213.8 78.6 206.4 84.8 199 78.6 199 68.1"/>
            <polygon class="cls-2" points="201.7 70.4 206.4 66.9 211.1 70.4 211.1 77.1 206.4 80.6 201.7 77.1 201.7 70.4"/>
            <polygon class="cls-12" points="190.2 87.1 197.6 80.9 205 87.1 205 127.7 197.6 133.9 190.2 127.7 190.2 87.1"/>
            <polygon class="cls-16" points="192.8 87.1 202.4 87.1 202.4 106.2 192.8 106.2 192.8 87.1"/>
            <polygon class="cls-15" points="273.5 87.1 266.1 80.9 258.7 87.1 258.7 127.7 266.1 133.9 273.5 127.7 273.5 87.1"/>
            <polygon class="cls-2" points="270.8 111.5 266.1 107.4 261.4 111.5 261.4 126.2 266.1 130.4 270.8 126.2 270.8 111.5"/>
            <polygon class="cls-2" points="270.8 87.4 266.1 83.2 261.4 87.4 261.4 102 266.1 106.2 270.8 102 270.8 87.4"/>
            <polygon class="cls-15" points="282.1 68.1 274.8 62.7 267.4 68.3 267.4 78.6 274.8 84.8 282.1 78.6 282.1 68.1"/>
            <polygon class="cls-2" points="279.5 70.4 274.8 66.9 270.1 70.4 270.1 77.1 274.8 80.6 279.5 77.1 279.5 70.4"/>
            <polygon class="cls-12" points="290.6 87.1 283.2 80.9 275.8 87.1 275.8 127.7 283.2 133.9 290.6 127.7 290.6 87.1"/>
            <rect class="cls-16" x="278.4" y="87.1" width="9.7" height="19.1"/>
            <polygon class="cls-15" points="310 87.1 317.4 80.9 324.8 87.1 324.8 127.7 317.4 133.9 310 127.7 310 87.1"/>
            <polygon class="cls-2" points="312.7 111.5 317.4 107.4 322.1 111.5 322.1 126.2 317.4 130.4 312.7 126.2 312.7 111.5"/>
            <polygon class="cls-2" points="312.7 87.4 317.4 83.2 322.1 87.4 322.1 102 317.4 106.2 312.7 102 312.7 87.4"/>
            <polygon class="cls-15" points="292.9 87.1 300.3 80.9 307.7 87.1 307.7 127.7 300.3 133.9 292.9 127.7 292.9 87.1"/>
            <polygon class="cls-2" points="295.6 111.5 300.3 107.4 305 111.5 305 126.2 300.3 130.4 295.6 126.2 295.6 111.5"/>
            <polygon class="cls-2" points="295.6 87.4 300.3 83.2 305 87.4 305 102 300.3 106.2 295.6 102 295.6 87.4"/>
            <polygon class="cls-15" points="301.5 68.1 308.9 62.7 316.3 68.3 316.3 78.6 308.9 84.8 301.5 78.6 301.5 68.1"/>
            <polygon class="cls-2" points="304.2 70.4 308.9 66.9 313.6 70.4 313.6 77.1 308.9 80.6 304.2 77.1 304.2 70.4"/>
            <polygon class="cls-15" points="327.2 87.1 334.5 80.9 342 87.1 342 127.7 334.5 133.9 327.2 127.7 327.2 87.1"/>
            <polygon class="cls-2" points="329.9 111.5 334.5 107.4 339.2 111.5 339.2 126.2 334.5 130.4 329.9 126.2 329.9 111.5"/>
            <polygon class="cls-2" points="329.9 87.4 334.5 83.2 339.2 87.4 339.2 102 334.5 106.2 329.9 102 329.9 87.4"/>
            <polygon class="cls-15" points="335.7 68.1 343.1 62.7 350.5 68.3 350.5 78.6 343.1 84.8 335.7 78.6 335.7 68.1"/>
            <polygon class="cls-2" points="338.4 70.4 343.1 66.9 347.8 70.4 347.8 77.1 343.1 80.6 338.4 77.1 338.4 70.4"/>
          </g>
          <g>
            <polygon class="cls-15" points="70.6 87.1 78 80.9 85.4 87.1 85.4 127.7 78 133.9 70.6 127.7 70.6 87.1"/>
            <polygon class="cls-2" points="73.3 111.5 78 107.4 82.7 111.5 82.7 126.2 78 130.4 73.3 126.2 73.3 111.5"/>
            <polygon class="cls-2" points="73.3 87.4 78 83.2 82.7 87.4 82.7 102 78 106.2 73.3 102 73.3 87.4"/>
            <polygon class="cls-15" points="53.5 87.1 60.8 80.9 68.2 87.1 68.2 127.7 60.8 133.9 53.5 127.7 53.5 87.1"/>
            <polygon class="cls-2" points="56.2 111.5 60.8 107.4 65.6 111.5 65.6 126.2 60.8 130.4 56.2 126.2 56.2 111.5"/>
            <polygon class="cls-2" points="56.2 87.4 60.8 83.2 65.6 87.4 65.6 102 60.8 106.2 56.2 102 56.2 87.4"/>
            <polygon class="cls-15" points="62.2 68.1 69.6 62.7 77 68.3 77 78.6 69.6 84.8 62.2 78.6 62.2 68.1"/>
            <polygon class="cls-2" points="64.9 70.4 69.6 66.9 74.3 70.4 74.3 77.1 69.6 80.6 64.9 77.1 64.9 70.4"/>
            <polygon class="cls-15" points="36.3 87.1 43.7 80.9 51.1 87.1 51.1 127.7 43.7 133.9 36.3 127.7 36.3 87.1"/>
            <polygon class="cls-2" points="39 111.5 43.7 107.4 48.4 111.5 48.4 126.2 43.7 130.4 39 126.2 39 111.5"/>
            <polygon class="cls-2" points="39 87.4 43.7 83.2 48.4 87.4 48.4 102 43.7 106.2 39 102 39 87.4"/>
            <polygon class="cls-15" points="28 68.1 35.4 62.7 42.8 68.3 42.8 78.6 35.4 84.8 28 78.6 28 68.1"/>
            <polygon class="cls-2" points="30.7 70.4 35.4 66.9 40.1 70.4 40.1 77.1 35.4 80.6 30.7 77.1 30.7 70.4"/>
            <polygon class="cls-12" points="19.2 87.1 26.6 80.9 34 87.1 34 127.7 26.6 133.9 19.2 127.7 19.2 87.1"/>
            <polygon class="cls-16" points="21.8 87.1 31.5 87.1 31.5 106.2 21.8 106.2 21.8 87.1"/>
            <polygon class="cls-15" points="102.5 87.1 95.1 80.9 87.7 87.1 87.7 127.7 95.1 133.9 102.5 127.7 102.5 87.1"/>
            <polygon class="cls-2" points="99.8 111.5 95.1 107.4 90.4 111.5 90.4 126.2 95.1 130.4 99.8 126.2 99.8 111.5"/>
            <polygon class="cls-2" points="99.8 87.4 95.1 83.2 90.4 87.4 90.4 102 95.1 106.2 99.8 102 99.8 87.4"/>
            <polygon class="cls-15" points="111.2 68.1 103.8 62.7 96.4 68.3 96.4 78.6 103.8 84.8 111.2 78.6 111.2 68.1"/>
            <polygon class="cls-2" points="108.4 70.4 103.8 66.9 99.1 70.4 99.1 77.1 103.8 80.6 108.4 77.1 108.4 70.4"/>
            <polygon class="cls-12" points="119.6 87.1 112.2 80.9 104.8 87.1 104.8 127.7 112.2 133.9 119.6 127.7 119.6 87.1"/>
            <rect class="cls-16" x="107.4" y="87.1" width="9.7" height="19.1"/>
            <polygon class="cls-15" points="139 87.1 146.4 80.9 153.8 87.1 153.8 127.7 146.4 133.9 139 127.7 139 87.1"/>
            <polygon class="cls-2" points="141.7 111.5 146.4 107.4 151.1 111.5 151.1 126.2 146.4 130.4 141.7 126.2 141.7 111.5"/>
            <polygon class="cls-2" points="141.7 87.4 146.4 83.2 151.1 87.4 151.1 102 146.4 106.2 141.7 102 141.7 87.4"/>
            <polygon class="cls-15" points="121.9 87.1 129.3 80.9 136.7 87.1 136.7 127.7 129.3 133.9 121.9 127.7 121.9 87.1"/>
            <polygon class="cls-2" points="124.6 111.5 129.3 107.4 134 111.5 134 126.2 129.3 130.4 124.6 126.2 124.6 111.5"/>
            <polygon class="cls-2" points="124.6 87.4 129.3 83.2 134 87.4 134 102 129.3 106.2 124.6 102 124.6 87.4"/>
            <polygon class="cls-15" points="130.5 68.1 137.9 62.7 145.3 68.3 145.3 78.6 137.9 84.8 130.5 78.6 130.5 68.1"/>
            <polygon class="cls-2" points="133.2 70.4 137.9 66.9 142.6 70.4 142.6 77.1 137.9 80.6 133.2 77.1 133.2 70.4"/>
            <polygon class="cls-15" points="173.3 87.1 180.7 80.9 188.1 87.1 188.1 127.7 180.7 133.9 173.3 127.7 173.3 87.1"/>
            <polygon class="cls-2" points="176 111.5 180.7 107.4 185.4 111.5 185.4 126.2 180.7 130.4 176 126.2 176 111.5"/>
            <polygon class="cls-2" points="176 87.4 180.7 83.2 185.4 87.4 185.4 102 180.7 106.2 176 102 176 87.4"/>
            <polygon class="cls-15" points="156.2 87.1 163.6 80.9 170.9 87.1 170.9 127.7 163.6 133.9 156.2 127.7 156.2 87.1"/>
            <polygon class="cls-2" points="158.9 111.5 163.6 107.4 168.2 111.5 168.2 126.2 163.6 130.4 158.9 126.2 158.9 111.5"/>
            <polygon class="cls-2" points="158.9 87.4 163.6 83.2 168.2 87.4 168.2 102 163.6 106.2 158.9 102 158.9 87.4"/>
            <polygon class="cls-15" points="164.7 68.1 172.1 62.7 179.5 68.3 179.5 78.6 172.1 84.8 164.7 78.6 164.7 68.1"/>
            <polygon class="cls-2" points="167.4 70.4 172.1 66.9 176.8 70.4 176.8 77.1 172.1 80.6 167.4 77.1 167.4 70.4"/>
          </g>
          <g>
            <polygon class="cls-15" points="2.3 87.1 9.7 80.9 17.1 87.1 17.1 127.7 9.7 133.9 2.3 127.7 2.3 87.1"/>
            <polygon class="cls-2" points="5 111.5 9.7 107.4 14.4 111.5 14.4 126.2 9.7 130.4 5 126.2 5 111.5"/>
            <polygon class="cls-2" points="5 87.4 9.7 83.2 14.4 87.4 14.4 102 9.7 106.2 5 102 5 87.4"/>
            <polygon class="cls-15" points="-6.3 68.1 1.1 62.7 8.5 68.3 8.5 78.6 1.1 84.8 -6.3 78.6 -6.3 68.1"/>
            <polygon class="cls-2" points="-3.6 70.4 1.1 66.9 5.8 70.4 5.8 77.1 1.1 80.6 -3.6 77.1 -3.6 70.4"/>
          </g>
          <g>
            <polygon class="cls-15" points="310 154 317.4 147.8 324.8 154 324.8 194.6 317.4 200.8 310 194.6 310 154"/>
            <polygon class="cls-2" points="312.7 178.5 317.4 174.3 322.1 178.5 322.1 193.1 317.4 197.3 312.7 193.1 312.7 178.5"/>
            <polygon class="cls-2" points="312.7 154.3 317.4 150.1 322.1 154.3 322.1 169 317.4 173.1 312.7 169 312.7 154.3"/>
            <polygon class="cls-15" points="292.9 154 300.2 147.8 307.6 154 307.6 194.6 300.2 200.8 292.9 194.6 292.9 154"/>
            <polygon class="cls-2" points="295.6 178.5 300.2 174.3 305 178.5 305 193.1 300.2 197.3 295.6 193.1 295.6 178.5"/>
            <polygon class="cls-2" points="295.6 154.3 300.2 150.1 305 154.3 305 169 300.2 173.1 295.6 169 295.6 154.3"/>
            <polygon class="cls-15" points="301.6 135.1 309 129.7 316.4 135.3 316.4 145.5 309 151.7 301.6 145.5 301.6 135.1"/>
            <polygon class="cls-2" points="304.3 137.3 309 133.9 313.7 137.3 313.7 144.1 309 147.5 304.3 144.1 304.3 137.3"/>
            <polygon class="cls-15" points="275.7 154 283.1 147.8 290.5 154 290.5 194.6 283.1 200.8 275.7 194.6 275.7 154"/>
            <polygon class="cls-2" points="278.4 178.5 283.1 174.3 287.8 178.5 287.8 193.1 283.1 197.3 278.4 193.1 278.4 178.5"/>
            <polygon class="cls-2" points="278.4 154.3 283.1 150.1 287.8 154.3 287.8 169 283.1 173.1 278.4 169 278.4 154.3"/>
            <polygon class="cls-15" points="267.4 135.1 274.8 129.7 282.2 135.3 282.2 145.5 274.8 151.7 267.4 145.5 267.4 135.1"/>
            <polygon class="cls-2" points="270.1 137.3 274.8 133.9 279.5 137.3 279.5 144.1 274.8 147.5 270.1 144.1 270.1 137.3"/>
            <polygon class="cls-12" points="258.6 154 266 147.8 273.4 154 273.4 194.6 266 200.8 258.6 194.6 258.6 154"/>
            <polygon class="cls-16" points="261.2 154 270.9 154 270.9 173.1 261.2 173.1 261.2 154"/>
            <polygon class="cls-15" points="341.9 154 334.5 147.8 327.1 154 327.1 194.6 334.5 200.8 341.9 194.6 341.9 154"/>
            <polygon class="cls-2" points="339.2 178.5 334.5 174.3 329.8 178.5 329.8 193.1 334.5 197.3 339.2 193.1 339.2 178.5"/>
            <polygon class="cls-2" points="339.2 154.3 334.5 150.1 329.8 154.3 329.8 169 334.5 173.1 339.2 169 339.2 154.3"/>
            <polygon class="cls-15" points="350.5 135.1 343.1 129.7 335.8 135.3 335.8 145.5 343.1 151.7 350.5 145.5 350.5 135.1"/>
            <polygon class="cls-2" points="347.9 137.3 343.1 133.9 338.5 137.3 338.5 144.1 343.1 147.5 347.9 144.1 347.9 137.3"/>
          </g>
          <g>
            <polygon class="cls-15" points="139 154 146.4 147.8 153.8 154 153.8 194.6 146.4 200.8 139 194.6 139 154"/>
            <polygon class="cls-2" points="141.7 178.5 146.4 174.3 151.1 178.5 151.1 193.1 146.4 197.3 141.7 193.1 141.7 178.5"/>
            <polygon class="cls-2" points="141.7 154.3 146.4 150.1 151.1 154.3 151.1 169 146.4 173.1 141.7 169 141.7 154.3"/>
            <polygon class="cls-15" points="121.9 154 129.2 147.8 136.6 154 136.6 194.6 129.2 200.8 121.9 194.6 121.9 154"/>
            <polygon class="cls-2" points="124.6 178.5 129.2 174.3 133.9 178.5 133.9 193.1 129.2 197.3 124.6 193.1 124.6 178.5"/>
            <polygon class="cls-2" points="124.6 154.3 129.2 150.1 133.9 154.3 133.9 169 129.2 173.1 124.6 169 124.6 154.3"/>
            <polygon class="cls-15" points="130.6 135.1 138 129.7 145.4 135.3 145.4 145.5 138 151.7 130.6 145.5 130.6 135.1"/>
            <polygon class="cls-2" points="133.3 137.3 138 133.9 142.7 137.3 142.7 144.1 138 147.5 133.3 144.1 133.3 137.3"/>
            <polygon class="cls-15" points="104.7 154 112.1 147.8 119.5 154 119.5 194.6 112.1 200.8 104.7 194.6 104.7 154"/>
            <polygon class="cls-2" points="107.4 178.5 112.1 174.3 116.8 178.5 116.8 193.1 112.1 197.3 107.4 193.1 107.4 178.5"/>
            <polygon class="cls-2" points="107.4 154.3 112.1 150.1 116.8 154.3 116.8 169 112.1 173.1 107.4 169 107.4 154.3"/>
            <polygon class="cls-15" points="96.4 135.1 103.8 129.7 111.2 135.3 111.2 145.5 103.8 151.7 96.4 145.5 96.4 135.1"/>
            <polygon class="cls-2" points="99.1 137.3 103.8 133.9 108.5 137.3 108.5 144.1 103.8 147.5 99.1 144.1 99.1 137.3"/>
            <polygon class="cls-12" points="87.6 154 95 147.8 102.4 154 102.4 194.6 95 200.8 87.6 194.6 87.6 154"/>
            <polygon class="cls-16" points="90.2 154 99.8 154 99.8 173.1 90.2 173.1 90.2 154"/>
            <polygon class="cls-15" points="170.9 154 163.5 147.8 156.1 154 156.1 194.6 163.5 200.8 170.9 194.6 170.9 154"/>
            <polygon class="cls-2" points="168.2 178.5 163.5 174.3 158.8 178.5 158.8 193.1 163.5 197.3 168.2 193.1 168.2 178.5"/>
            <polygon class="cls-2" points="168.2 154.3 163.5 150.1 158.8 154.3 158.8 169 163.5 173.1 168.2 169 168.2 154.3"/>
            <polygon class="cls-15" points="179.6 135.1 172.1 129.7 164.8 135.3 164.8 145.5 172.1 151.7 179.6 145.5 179.6 135.1"/>
            <polygon class="cls-2" points="176.9 137.3 172.1 133.9 167.5 137.3 167.5 144.1 172.1 147.5 176.9 144.1 176.9 137.3"/>
            <polygon class="cls-12" points="188 154 180.6 147.8 173.2 154 173.2 194.6 180.6 200.8 188 194.6 188 154"/>
            <rect class="cls-16" x="175.8" y="154" width="9.7" height="19.1"/>
            <polygon class="cls-15" points="207.4 154 214.8 147.8 222.2 154 222.2 194.6 214.8 200.8 207.4 194.6 207.4 154"/>
            <polygon class="cls-2" points="210.1 178.5 214.8 174.3 219.5 178.5 219.5 193.1 214.8 197.3 210.1 193.1 210.1 178.5"/>
            <polygon class="cls-2" points="210.1 154.3 214.8 150.1 219.5 154.3 219.5 169 214.8 173.1 210.1 169 210.1 154.3"/>
            <polygon class="cls-15" points="190.3 154 197.7 147.8 205.1 154 205.1 194.6 197.7 200.8 190.3 194.6 190.3 154"/>
            <polygon class="cls-2" points="193 178.5 197.7 174.3 202.4 178.5 202.4 193.1 197.7 197.3 193 193.1 193 178.5"/>
            <polygon class="cls-2" points="193 154.3 197.7 150.1 202.4 154.3 202.4 169 197.7 173.1 193 169 193 154.3"/>
            <polygon class="cls-15" points="198.9 135.1 206.3 129.7 213.7 135.3 213.7 145.5 206.3 151.7 198.9 145.5 198.9 135.1"/>
            <polygon class="cls-2" points="201.6 137.3 206.3 133.9 211 137.3 211 144.1 206.3 147.5 201.6 144.1 201.6 137.3"/>
            <polygon class="cls-15" points="241.7 154 249.1 147.8 256.5 154 256.5 194.6 249.1 200.8 241.7 194.6 241.7 154"/>
            <polygon class="cls-2" points="244.4 178.5 249.1 174.3 253.8 178.5 253.8 193.1 249.1 197.3 244.4 193.1 244.4 178.5"/>
            <polygon class="cls-2" points="244.4 154.3 249.1 150.1 253.8 154.3 253.8 169 249.1 173.1 244.4 169 244.4 154.3"/>
            <polygon class="cls-15" points="224.6 154 231.9 147.8 239.4 154 239.4 194.6 231.9 200.8 224.6 194.6 224.6 154"/>
            <polygon class="cls-2" points="227.3 178.5 231.9 174.3 236.6 178.5 236.6 193.1 231.9 197.3 227.3 193.1 227.3 178.5"/>
            <polygon class="cls-2" points="227.3 154.3 231.9 150.1 236.6 154.3 236.6 169 231.9 173.1 227.3 169 227.3 154.3"/>
            <polygon class="cls-15" points="233.1 135.1 240.5 129.7 247.9 135.3 247.9 145.5 240.5 151.7 233.1 145.5 233.1 135.1"/>
            <polygon class="cls-2" points="235.8 137.3 240.5 133.9 245.2 137.3 245.2 144.1 240.5 147.5 235.8 144.1 235.8 137.3"/>
          </g>
          <g>
            <polygon class="cls-15" points="8.6 135.1 1.1 129.7 -6.2 135.3 -6.2 145.5 1.1 151.7 8.6 145.5 8.6 135.1"/>
            <polygon class="cls-2" points="5.8 137.3 1.1 133.9 -3.5 137.3 -3.5 144.1 1.1 147.5 5.8 144.1 5.8 137.3"/>
            <polygon class="cls-12" points="17 154 9.6 147.8 2.2 154 2.2 194.6 9.6 200.8 17 194.6 17 154"/>
            <rect class="cls-16" x="4.8" y="154" width="9.7" height="19.1"/>
            <polygon class="cls-15" points="36.4 154 43.8 147.8 51.2 154 51.2 194.6 43.8 200.8 36.4 194.6 36.4 154"/>
            <polygon class="cls-2" points="39.1 178.5 43.8 174.3 48.5 178.5 48.5 193.1 43.8 197.3 39.1 193.1 39.1 178.5"/>
            <polygon class="cls-2" points="39.1 154.3 43.8 150.1 48.5 154.3 48.5 169 43.8 173.1 39.1 169 39.1 154.3"/>
            <polygon class="cls-15" points="19.3 154 26.7 147.8 34.1 154 34.1 194.6 26.7 200.8 19.3 194.6 19.3 154"/>
            <polygon class="cls-2" points="22 178.5 26.7 174.3 31.4 178.5 31.4 193.1 26.7 197.3 22 193.1 22 178.5"/>
            <polygon class="cls-2" points="22 154.3 26.7 150.1 31.4 154.3 31.4 169 26.7 173.1 22 169 22 154.3"/>
            <polygon class="cls-15" points="27.9 135.1 35.3 129.7 42.7 135.3 42.7 145.5 35.3 151.7 27.9 145.5 27.9 135.1"/>
            <polygon class="cls-2" points="30.6 137.3 35.3 133.9 40 137.3 40 144.1 35.3 147.5 30.6 144.1 30.6 137.3"/>
            <polygon class="cls-15" points="70.7 154 78.1 147.8 85.5 154 85.5 194.6 78.1 200.8 70.7 194.6 70.7 154"/>
            <polygon class="cls-2" points="73.4 178.5 78.1 174.3 82.8 178.5 82.8 193.1 78.1 197.3 73.4 193.1 73.4 178.5"/>
            <polygon class="cls-2" points="73.4 154.3 78.1 150.1 82.8 154.3 82.8 169 78.1 173.1 73.4 169 73.4 154.3"/>
            <polygon class="cls-15" points="53.6 154 61 147.8 68.3 154 68.3 194.6 61 200.8 53.6 194.6 53.6 154"/>
            <polygon class="cls-2" points="56.3 178.5 61 174.3 65.7 178.5 65.7 193.1 61 197.3 56.3 193.1 56.3 178.5"/>
            <polygon class="cls-2" points="56.3 154.3 61 150.1 65.7 154.3 65.7 169 61 173.1 56.3 169 56.3 154.3"/>
            <polygon class="cls-15" points="62.1 135.1 69.5 129.7 76.9 135.3 76.9 145.5 69.5 151.7 62.1 145.5 62.1 135.1"/>
            <polygon class="cls-2" points="64.8 137.3 69.5 133.9 74.2 137.3 74.2 144.1 69.5 147.5 64.8 144.1 64.8 137.3"/>
          </g>
          <g>
            <polygon class="cls-15" points="335.8 202 343.2 196.6 350.6 202.2 350.6 212.5 343.2 218.7 335.8 212.5 335.8 202"/>
            <polygon class="cls-2" points="338.5 204.3 343.2 200.8 347.9 204.3 347.9 211 343.2 214.5 338.5 211 338.5 204.3"/>
            <polygon class="cls-12" points="327 221 334.4 214.8 341.8 221 341.8 261.5 334.4 267.7 327 261.5 327 221"/>
            <polygon class="cls-16" points="329.6 221 339.2 221 339.2 240 329.6 240 329.6 221"/>
          </g>
          <g>
            <polygon class="cls-15" points="207.4 221 214.8 214.8 222.2 221 222.2 261.5 214.8 267.7 207.4 261.5 207.4 221"/>
            <polygon class="cls-2" points="210.1 245.4 214.8 241.2 219.5 245.4 219.5 260.1 214.8 264.2 210.1 260.1 210.1 245.4"/>
            <polygon class="cls-2" points="210.1 221.2 214.8 217.1 219.5 221.2 219.5 235.9 214.8 240 210.1 235.9 210.1 221.2"/>
            <polygon class="cls-15" points="190.3 221 197.6 214.8 205 221 205 261.5 197.6 267.7 190.3 261.5 190.3 221"/>
            <polygon class="cls-2" points="193 245.4 197.6 241.2 202.4 245.4 202.4 260.1 197.6 264.2 193 260.1 193 245.4"/>
            <polygon class="cls-2" points="193 221.2 197.6 217.1 202.4 221.2 202.4 235.9 197.6 240 193 235.9 193 221.2"/>
            <polygon class="cls-15" points="199 202 206.4 196.6 213.8 202.2 213.8 212.5 206.4 218.7 199 212.5 199 202"/>
            <polygon class="cls-2" points="201.7 204.3 206.4 200.8 211.1 204.3 211.1 211 206.4 214.5 201.7 211 201.7 204.3"/>
            <polygon class="cls-15" points="173.1 221 180.5 214.8 187.9 221 187.9 261.5 180.5 267.7 173.1 261.5 173.1 221"/>
            <polygon class="cls-2" points="175.8 245.4 180.5 241.2 185.2 245.4 185.2 260.1 180.5 264.2 175.8 260.1 175.8 245.4"/>
            <polygon class="cls-2" points="175.8 221.2 180.5 217.1 185.2 221.2 185.2 235.9 180.5 240 175.8 235.9 175.8 221.2"/>
            <polygon class="cls-15" points="164.8 202 172.2 196.6 179.6 202.2 179.6 212.5 172.2 218.7 164.8 212.5 164.8 202"/>
            <polygon class="cls-2" points="167.5 204.3 172.2 200.8 176.9 204.3 176.9 211 172.2 214.5 167.5 211 167.5 204.3"/>
            <polygon class="cls-12" points="156 221 163.4 214.8 170.8 221 170.8 261.5 163.4 267.7 156 261.5 156 221"/>
            <polygon class="cls-16" points="158.6 221 168.2 221 168.2 240 158.6 240 158.6 221"/>
            <polygon class="cls-15" points="239.3 221 231.9 214.8 224.5 221 224.5 261.5 231.9 267.7 239.3 261.5 239.3 221"/>
            <polygon class="cls-2" points="236.6 245.4 231.9 241.2 227.2 245.4 227.2 260.1 231.9 264.2 236.6 260.1 236.6 245.4"/>
            <polygon class="cls-2" points="236.6 221.2 231.9 217.1 227.2 221.2 227.2 235.9 231.9 240 236.6 235.9 236.6 221.2"/>
            <polygon class="cls-15" points="247.9 202 240.6 196.6 233.2 202.2 233.2 212.5 240.6 218.7 247.9 212.5 247.9 202"/>
            <polygon class="cls-2" points="245.2 204.3 240.6 200.8 235.9 204.3 235.9 211 240.6 214.5 245.2 211 245.2 204.3"/>
            <polygon class="cls-12" points="256.4 221 249 214.8 241.6 221 241.6 261.5 249 267.7 256.4 261.5 256.4 221"/>
            <rect class="cls-16" x="244.2" y="221" width="9.7" height="19.1"/>
            <polygon class="cls-15" points="275.8 221 283.2 214.8 290.6 221 290.6 261.5 283.2 267.7 275.8 261.5 275.8 221"/>
            <polygon class="cls-2" points="278.5 245.4 283.2 241.2 287.9 245.4 287.9 260.1 283.2 264.2 278.5 260.1 278.5 245.4"/>
            <polygon class="cls-2" points="278.5 221.2 283.2 217.1 287.9 221.2 287.9 235.9 283.2 240 278.5 235.9 278.5 221.2"/>
            <polygon class="cls-15" points="258.7 221 266.1 214.8 273.5 221 273.5 261.5 266.1 267.7 258.7 261.5 258.7 221"/>
            <polygon class="cls-2" points="261.4 245.4 266.1 241.2 270.8 245.4 270.8 260.1 266.1 264.2 261.4 260.1 261.4 245.4"/>
            <polygon class="cls-2" points="261.4 221.2 266.1 217.1 270.8 221.2 270.8 235.9 266.1 240 261.4 235.9 261.4 221.2"/>
            <polygon class="cls-15" points="267.3 202 274.7 196.6 282.1 202.2 282.1 212.5 274.7 218.7 267.3 212.5 267.3 202"/>
            <polygon class="cls-2" points="270 204.3 274.7 200.8 279.4 204.3 279.4 211 274.7 214.5 270 211 270 204.3"/>
            <polygon class="cls-15" points="310.1 221 317.5 214.8 324.9 221 324.9 261.5 317.5 267.7 310.1 261.5 310.1 221"/>
            <polygon class="cls-2" points="312.8 245.4 317.5 241.2 322.2 245.4 322.2 260.1 317.5 264.2 312.8 260.1 312.8 245.4"/>
            <polygon class="cls-2" points="312.8 221.2 317.5 217.1 322.2 221.2 322.2 235.9 317.5 240 312.8 235.9 312.8 221.2"/>
            <polygon class="cls-15" points="293 221 300.4 214.8 307.8 221 307.8 261.5 300.4 267.7 293 261.5 293 221"/>
            <polygon class="cls-2" points="295.7 245.4 300.4 241.2 305 245.4 305 260.1 300.4 264.2 295.7 260.1 295.7 245.4"/>
            <polygon class="cls-2" points="295.7 221.2 300.4 217.1 305 221.2 305 235.9 300.4 240 295.7 235.9 295.7 221.2"/>
            <polygon class="cls-15" points="301.5 202 308.9 196.6 316.3 202.2 316.3 212.5 308.9 218.7 301.5 212.5 301.5 202"/>
            <polygon class="cls-2" points="304.2 204.3 308.9 200.8 313.6 204.3 313.6 211 308.9 214.5 304.2 211 304.2 204.3"/>
          </g>
          <g>
            <polygon class="cls-15" points="36.4 221 43.8 214.8 51.2 221 51.2 261.5 43.8 267.7 36.4 261.5 36.4 221"/>
            <polygon class="cls-2" points="39.1 245.4 43.8 241.2 48.5 245.4 48.5 260.1 43.8 264.2 39.1 260.1 39.1 245.4"/>
            <polygon class="cls-2" points="39.1 221.2 43.8 217.1 48.5 221.2 48.5 235.9 43.8 240 39.1 235.9 39.1 221.2"/>
            <polygon class="cls-15" points="19.3 221 26.6 214.8 34 221 34 261.5 26.6 267.7 19.3 261.5 19.3 221"/>
            <polygon class="cls-2" points="22 245.4 26.6 241.2 31.4 245.4 31.4 260.1 26.6 264.2 22 260.1 22 245.4"/>
            <polygon class="cls-2" points="22 221.2 26.6 217.1 31.4 221.2 31.4 235.9 26.6 240 22 235.9 22 221.2"/>
            <polygon class="cls-15" points="28 202 35.4 196.6 42.8 202.2 42.8 212.5 35.4 218.7 28 212.5 28 202"/>
            <polygon class="cls-2" points="30.7 204.3 35.4 200.8 40.1 204.3 40.1 211 35.4 214.5 30.7 211 30.7 204.3"/>
            <polygon class="cls-15" points="2.1 221 9.5 214.8 16.9 221 16.9 261.5 9.5 267.7 2.1 261.5 2.1 221"/>
            <polygon class="cls-2" points="4.8 245.4 9.5 241.2 14.2 245.4 14.2 260.1 9.5 264.2 4.8 260.1 4.8 245.4"/>
            <polygon class="cls-2" points="4.8 221.2 9.5 217.1 14.2 221.2 14.2 235.9 9.5 240 4.8 235.9 4.8 221.2"/>
            <polygon class="cls-15" points="-6.2 202 1.2 196.6 8.6 202.2 8.6 212.5 1.2 218.7 -6.2 212.5 -6.2 202"/>
            <polygon class="cls-2" points="-3.5 204.3 1.2 200.8 5.9 204.3 5.9 211 1.2 214.5 -3.5 211 -3.5 204.3"/>
            <polygon class="cls-15" points="68.3 221 60.9 214.8 53.5 221 53.5 261.5 60.9 267.7 68.3 261.5 68.3 221"/>
            <polygon class="cls-2" points="65.6 245.4 60.9 241.2 56.2 245.4 56.2 260.1 60.9 264.2 65.6 260.1 65.6 245.4"/>
            <polygon class="cls-2" points="65.6 221.2 60.9 217.1 56.2 221.2 56.2 235.9 60.9 240 65.6 235.9 65.6 221.2"/>
            <polygon class="cls-15" points="76.9 202 69.6 196.6 62.2 202.2 62.2 212.5 69.6 218.7 76.9 212.5 76.9 202"/>
            <polygon class="cls-2" points="74.2 204.3 69.6 200.8 64.9 204.3 64.9 211 69.6 214.5 74.2 211 74.2 204.3"/>
            <polygon class="cls-12" points="85.4 221 78 214.8 70.6 221 70.6 261.5 78 267.7 85.4 261.5 85.4 221"/>
            <rect class="cls-16" x="73.2" y="221" width="9.7" height="19.1"/>
            <polygon class="cls-15" points="104.8 221 112.2 214.8 119.6 221 119.6 261.5 112.2 267.7 104.8 261.5 104.8 221"/>
            <polygon class="cls-2" points="107.5 245.4 112.2 241.2 116.9 245.4 116.9 260.1 112.2 264.2 107.5 260.1 107.5 245.4"/>
            <polygon class="cls-2" points="107.5 221.2 112.2 217.1 116.9 221.2 116.9 235.9 112.2 240 107.5 235.9 107.5 221.2"/>
            <polygon class="cls-15" points="87.7 221 95.1 214.8 102.5 221 102.5 261.5 95.1 267.7 87.7 261.5 87.7 221"/>
            <polygon class="cls-2" points="90.4 245.4 95.1 241.2 99.8 245.4 99.8 260.1 95.1 264.2 90.4 260.1 90.4 245.4"/>
            <polygon class="cls-2" points="90.4 221.2 95.1 217.1 99.8 221.2 99.8 235.9 95.1 240 90.4 235.9 90.4 221.2"/>
            <polygon class="cls-15" points="96.3 202 103.7 196.6 111.1 202.2 111.1 212.5 103.7 218.7 96.3 212.5 96.3 202"/>
            <polygon class="cls-2" points="99 204.3 103.7 200.8 108.4 204.3 108.4 211 103.7 214.5 99 211 99 204.3"/>
            <polygon class="cls-15" points="139.1 221 146.5 214.8 153.9 221 153.9 261.5 146.5 267.7 139.1 261.5 139.1 221"/>
            <polygon class="cls-2" points="141.8 245.4 146.5 241.2 151.2 245.4 151.2 260.1 146.5 264.2 141.8 260.1 141.8 245.4"/>
            <polygon class="cls-2" points="141.8 221.2 146.5 217.1 151.2 221.2 151.2 235.9 146.5 240 141.8 235.9 141.8 221.2"/>
            <polygon class="cls-15" points="122 221 129.4 214.8 136.8 221 136.8 261.5 129.4 267.7 122 261.5 122 221"/>
            <polygon class="cls-2" points="124.7 245.4 129.4 241.2 134.1 245.4 134.1 260.1 129.4 264.2 124.7 260.1 124.7 245.4"/>
            <polygon class="cls-2" points="124.7 221.2 129.4 217.1 134.1 221.2 134.1 235.9 129.4 240 124.7 235.9 124.7 221.2"/>
            <polygon class="cls-15" points="130.5 202 137.9 196.6 145.3 202.2 145.3 212.5 137.9 218.7 130.5 212.5 130.5 202"/>
            <polygon class="cls-2" points="133.2 204.3 137.9 200.8 142.6 204.3 142.6 211 137.9 214.5 133.2 211 133.2 204.3"/>
          </g>
          <g>
            <polygon class="cls-15" points="275.8 287.9 283.2 281.7 290.6 287.9 290.6 328.4 283.2 334.6 275.8 328.4 275.8 287.9"/>
            <polygon class="cls-2" points="278.5 312.3 283.2 308.2 287.9 312.3 287.9 327 283.2 331.2 278.5 327 278.5 312.3"/>
            <polygon class="cls-2" points="278.5 288.2 283.2 284 287.9 288.2 287.9 302.8 283.2 307 278.5 302.8 278.5 288.2"/>
            <polygon class="cls-15" points="258.7 287.9 266 281.7 273.4 287.9 273.4 328.4 266 334.6 258.7 328.4 258.7 287.9"/>
            <polygon class="cls-2" points="261.4 312.3 266 308.2 270.8 312.3 270.8 327 266 331.2 261.4 327 261.4 312.3"/>
            <polygon class="cls-2" points="261.4 288.2 266 284 270.8 288.2 270.8 302.8 266 307 261.4 302.8 261.4 288.2"/>
            <polygon class="cls-15" points="267.4 268.9 274.8 263.5 282.2 269.1 282.2 279.4 274.8 285.6 267.4 279.4 267.4 268.9"/>
            <polygon class="cls-2" points="270.1 271.2 274.8 267.7 279.5 271.2 279.5 277.9 274.8 281.4 270.1 277.9 270.1 271.2"/>
            <polygon class="cls-15" points="241.5 287.9 248.9 281.7 256.3 287.9 256.3 328.4 248.9 334.6 241.5 328.4 241.5 287.9"/>
            <polygon class="cls-2" points="244.2 312.3 248.9 308.2 253.6 312.3 253.6 327 248.9 331.2 244.2 327 244.2 312.3"/>
            <polygon class="cls-2" points="244.2 288.2 248.9 284 253.6 288.2 253.6 302.8 248.9 307 244.2 302.8 244.2 288.2"/>
            <polygon class="cls-15" points="233.2 268.9 240.6 263.5 248 269.1 248 279.4 240.6 285.6 233.2 279.4 233.2 268.9"/>
            <polygon class="cls-2" points="235.9 271.2 240.6 267.7 245.3 271.2 245.3 277.9 240.6 281.4 235.9 277.9 235.9 271.2"/>
            <polygon class="cls-12" points="224.4 287.9 231.8 281.7 239.2 287.9 239.2 328.4 231.8 334.6 224.4 328.4 224.4 287.9"/>
            <polygon class="cls-16" points="227 287.9 236.6 287.9 236.6 307 227 307 227 287.9"/>
            <polygon class="cls-15" points="307.7 287.9 300.3 281.7 292.9 287.9 292.9 328.4 300.3 334.6 307.7 328.4 307.7 287.9"/>
            <polygon class="cls-2" points="305 312.3 300.3 308.2 295.6 312.3 295.6 327 300.3 331.2 305 327 305 312.3"/>
            <polygon class="cls-2" points="305 288.2 300.3 284 295.6 288.2 295.6 302.8 300.3 307 305 302.8 305 288.2"/>
            <polygon class="cls-15" points="316.4 268.9 309 263.5 301.6 269.1 301.6 279.4 309 285.6 316.4 279.4 316.4 268.9"/>
            <polygon class="cls-2" points="313.6 271.2 309 267.7 304.3 271.2 304.3 277.9 309 281.4 313.6 277.9 313.6 271.2"/>
            <polygon class="cls-12" points="324.8 287.9 317.4 281.7 310 287.9 310 328.4 317.4 334.6 324.8 328.4 324.8 287.9"/>
            <rect class="cls-16" x="312.6" y="287.9" width="9.7" height="19.1"/>
            <polygon class="cls-15" points="327.1 287.9 334.5 281.7 341.9 287.9 341.9 328.4 334.5 334.6 327.1 328.4 327.1 287.9"/>
            <polygon class="cls-2" points="329.8 312.3 334.5 308.2 339.2 312.3 339.2 327 334.5 331.2 329.8 327 329.8 312.3"/>
            <polygon class="cls-2" points="329.8 288.2 334.5 284 339.2 288.2 339.2 302.8 334.5 307 329.8 302.8 329.8 288.2"/>
            <polygon class="cls-15" points="335.7 268.9 343.1 263.5 350.5 269.1 350.5 279.4 343.1 285.6 335.7 279.4 335.7 268.9"/>
            <polygon class="cls-2" points="338.4 271.2 343.1 267.7 347.8 271.2 347.8 277.9 343.1 281.4 338.4 277.9 338.4 271.2"/>
          </g>
          <g>
            <polygon class="cls-15" points="104.8 287.9 112.2 281.7 119.6 287.9 119.6 328.4 112.2 334.6 104.8 328.4 104.8 287.9"/>
            <polygon class="cls-2" points="107.5 312.3 112.2 308.2 116.9 312.3 116.9 327 112.2 331.2 107.5 327 107.5 312.3"/>
            <polygon class="cls-2" points="107.5 288.2 112.2 284 116.9 288.2 116.9 302.8 112.2 307 107.5 302.8 107.5 288.2"/>
            <polygon class="cls-15" points="87.7 287.9 95.1 281.7 102.4 287.9 102.4 328.4 95.1 334.6 87.7 328.4 87.7 287.9"/>
            <polygon class="cls-2" points="90.4 312.3 95.1 308.2 99.8 312.3 99.8 327 95.1 331.2 90.4 327 90.4 312.3"/>
            <polygon class="cls-2" points="90.4 288.2 95.1 284 99.8 288.2 99.8 302.8 95.1 307 90.4 302.8 90.4 288.2"/>
            <polygon class="cls-15" points="96.4 268.9 103.8 263.5 111.2 269.1 111.2 279.4 103.8 285.6 96.4 279.4 96.4 268.9"/>
            <polygon class="cls-2" points="99.1 271.2 103.8 267.7 108.5 271.2 108.5 277.9 103.8 281.4 99.1 277.9 99.1 271.2"/>
            <polygon class="cls-15" points="70.5 287.9 77.9 281.7 85.3 287.9 85.3 328.4 77.9 334.6 70.5 328.4 70.5 287.9"/>
            <polygon class="cls-2" points="73.2 312.3 77.9 308.2 82.6 312.3 82.6 327 77.9 331.2 73.2 327 73.2 312.3"/>
            <polygon class="cls-2" points="73.2 288.2 77.9 284 82.6 288.2 82.6 302.8 77.9 307 73.2 302.8 73.2 288.2"/>
            <polygon class="cls-15" points="62.2 268.9 69.6 263.5 77 269.1 77 279.4 69.6 285.6 62.2 279.4 62.2 268.9"/>
            <polygon class="cls-2" points="64.9 271.2 69.6 267.7 74.3 271.2 74.3 277.9 69.6 281.4 64.9 277.9 64.9 271.2"/>
            <polygon class="cls-12" points="53.4 287.9 60.8 281.7 68.2 287.9 68.2 328.4 60.8 334.6 53.4 328.4 53.4 287.9"/>
            <polygon class="cls-16" points="56 287.9 65.7 287.9 65.7 307 56 307 56 287.9"/>
            <polygon class="cls-15" points="136.7 287.9 129.3 281.7 121.9 287.9 121.9 328.4 129.3 334.6 136.7 328.4 136.7 287.9"/>
            <polygon class="cls-2" points="134 312.3 129.3 308.2 124.6 312.3 124.6 327 129.3 331.2 134 327 134 312.3"/>
            <polygon class="cls-2" points="134 288.2 129.3 284 124.6 288.2 124.6 302.8 129.3 307 134 302.8 134 288.2"/>
            <polygon class="cls-15" points="145.4 268.9 137.9 263.5 130.6 269.1 130.6 279.4 137.9 285.6 145.4 279.4 145.4 268.9"/>
            <polygon class="cls-2" points="142.6 271.2 137.9 267.7 133.3 271.2 133.3 277.9 137.9 281.4 142.6 277.9 142.6 271.2"/>
            <polygon class="cls-12" points="153.8 287.9 146.4 281.7 139 287.9 139 328.4 146.4 334.6 153.8 328.4 153.8 287.9"/>
            <rect class="cls-16" x="141.6" y="287.9" width="9.7" height="19.1"/>
            <polygon class="cls-15" points="173.2 287.9 180.6 281.7 188 287.9 188 328.4 180.6 334.6 173.2 328.4 173.2 287.9"/>
            <polygon class="cls-2" points="175.9 312.3 180.6 308.2 185.3 312.3 185.3 327 180.6 331.2 175.9 327 175.9 312.3"/>
            <polygon class="cls-2" points="175.9 288.2 180.6 284 185.3 288.2 185.3 302.8 180.6 307 175.9 302.8 175.9 288.2"/>
            <polygon class="cls-15" points="156.1 287.9 163.5 281.7 170.9 287.9 170.9 328.4 163.5 334.6 156.1 328.4 156.1 287.9"/>
            <polygon class="cls-2" points="158.8 312.3 163.5 308.2 168.2 312.3 168.2 327 163.5 331.2 158.8 327 158.8 312.3"/>
            <polygon class="cls-2" points="158.8 288.2 163.5 284 168.2 288.2 168.2 302.8 163.5 307 158.8 302.8 158.8 288.2"/>
            <polygon class="cls-15" points="164.7 268.9 172.1 263.5 179.5 269.1 179.5 279.4 172.1 285.6 164.7 279.4 164.7 268.9"/>
            <polygon class="cls-2" points="167.4 271.2 172.1 267.7 176.8 271.2 176.8 277.9 172.1 281.4 167.4 277.9 167.4 271.2"/>
            <polygon class="cls-15" points="207.5 287.9 214.9 281.7 222.3 287.9 222.3 328.4 214.9 334.6 207.5 328.4 207.5 287.9"/>
            <polygon class="cls-2" points="210.2 312.3 214.9 308.2 219.6 312.3 219.6 327 214.9 331.2 210.2 327 210.2 312.3"/>
            <polygon class="cls-2" points="210.2 288.2 214.9 284 219.6 288.2 219.6 302.8 214.9 307 210.2 302.8 210.2 288.2"/>
            <polygon class="cls-15" points="190.4 287.9 197.8 281.7 205.1 287.9 205.1 328.4 197.8 334.6 190.4 328.4 190.4 287.9"/>
            <polygon class="cls-2" points="193.1 312.3 197.8 308.2 202.4 312.3 202.4 327 197.8 331.2 193.1 327 193.1 312.3"/>
            <polygon class="cls-2" points="193.1 288.2 197.8 284 202.4 288.2 202.4 302.8 197.8 307 193.1 302.8 193.1 288.2"/>
            <polygon class="cls-15" points="198.9 268.9 206.3 263.5 213.7 269.1 213.7 279.4 206.3 285.6 198.9 279.4 198.9 268.9"/>
            <polygon class="cls-2" points="201.6 271.2 206.3 267.7 211 271.2 211 277.9 206.3 281.4 201.6 277.9 201.6 271.2"/>
          </g>
          <g>
            <polygon class="cls-15" points="2.2 287.9 9.6 281.7 17 287.9 17 328.4 9.6 334.6 2.2 328.4 2.2 287.9"/>
            <polygon class="cls-2" points="4.9 312.3 9.6 308.2 14.3 312.3 14.3 327 9.6 331.2 4.9 327 4.9 312.3"/>
            <polygon class="cls-2" points="4.9 288.2 9.6 284 14.3 288.2 14.3 302.8 9.6 307 4.9 302.8 4.9 288.2"/>
            <polygon class="cls-15" points="-6.3 268.9 1.1 263.5 8.5 269.1 8.5 279.4 1.1 285.6 -6.3 279.4 -6.3 268.9"/>
            <polygon class="cls-2" points="-3.6 271.2 1.1 267.7 5.8 271.2 5.8 277.9 1.1 281.4 -3.6 277.9 -3.6 271.2"/>
            <polygon class="cls-15" points="36.5 287.9 43.9 281.7 51.3 287.9 51.3 328.4 43.9 334.6 36.5 328.4 36.5 287.9"/>
            <polygon class="cls-2" points="39.2 312.3 43.9 308.2 48.6 312.3 48.6 327 43.9 331.2 39.2 327 39.2 312.3"/>
            <polygon class="cls-2" points="39.2 288.2 43.9 284 48.6 288.2 48.6 302.8 43.9 307 39.2 302.8 39.2 288.2"/>
            <polygon class="cls-15" points="19.4 287.9 26.8 281.7 34.2 287.9 34.2 328.4 26.8 334.6 19.4 328.4 19.4 287.9"/>
            <polygon class="cls-2" points="22.1 312.3 26.8 308.2 31.5 312.3 31.5 327 26.8 331.2 22.1 327 22.1 312.3"/>
            <polygon class="cls-2" points="22.1 288.2 26.8 284 31.5 288.2 31.5 302.8 26.8 307 22.1 302.8 22.1 288.2"/>
            <polygon class="cls-15" points="27.9 268.9 35.3 263.5 42.7 269.1 42.7 279.4 35.3 285.6 27.9 279.4 27.9 268.9"/>
            <polygon class="cls-2" points="30.6 271.2 35.3 267.7 40 271.2 40 277.9 35.3 281.4 30.6 277.9 30.6 271.2"/>
          </g>
          <g>
            <polygon class="cls-15" points="335.8 335.8 343.2 330.4 350.6 336 350.6 346.3 343.2 352.5 335.8 346.3 335.8 335.8"/>
            <polygon class="cls-15" points="301.6 335.8 309 330.4 316.4 336 316.4 346.3 309 352.5 301.6 346.3 301.6 335.8"/>
          </g>
          <g>
            <polygon class="cls-15" points="164.8 335.8 172.2 330.4 179.6 336 179.6 346.3 172.2 352.5 164.8 346.3 164.8 335.8"/>
            <polygon class="cls-15" points="130.6 335.8 138 330.4 145.4 336 145.4 346.3 138 352.5 130.6 346.3 130.6 335.8"/>
            <polygon class="cls-15" points="213.8 335.8 206.4 330.4 199 336 199 346.3 206.4 352.5 213.8 346.3 213.8 335.8"/>
            <polygon class="cls-15" points="233.1 335.8 240.5 330.4 247.9 336 247.9 346.3 240.5 352.5 233.1 346.3 233.1 335.8"/>
            <polygon class="cls-15" points="267.3 335.8 274.7 330.4 282.1 336 282.1 346.3 274.7 352.5 267.3 346.3 267.3 335.8"/>
          </g>
          <g>
            <polygon class="cls-15" points="-6.2 335.8 1.2 330.4 8.6 336 8.6 346.3 1.2 352.5 -6.2 346.3 -6.2 335.8"/>
            <polygon class="cls-15" points="42.8 335.8 35.3 330.4 28 336 28 346.3 35.3 352.5 42.8 346.3 42.8 335.8"/>
            <polygon class="cls-15" points="62.1 335.8 69.5 330.4 76.9 336 76.9 346.3 69.5 352.5 62.1 346.3 62.1 335.8"/>
            <polygon class="cls-15" points="96.3 335.8 103.7 330.4 111.1 336 111.1 346.3 103.7 352.5 96.3 346.3 96.3 335.8"/>
          </g>
        </g>
      </g>
    </pattern>
  </defs>
  <!-- Generator: Adobe Illustrator 28.7.1, SVG Export Plug-In . SVG Version: 1.2.0 Build 142)  -->
  <g>
    <g id="Layer_1">
      <rect class="cls-1" x="455.7" y="26.7" width="54.7" height="118.5"/>
      <rect class="cls-1" x="511" y="26.7" width="54.7" height="118.5"/>
      <rect class="cls-1" x="566.3" y="26.7" width="54.7" height="118.5"/>
      <rect class="cls-1" x="621.6" y="26.7" width="54.7" height="118.5"/>
      <rect class="cls-1" x="335" y="25.7" width="60.6" height="118.5"/>
      <line class="cls-3" x1="334.8" y1="73.2" x2="395.4" y2="73.2"/>
      <line class="cls-3" x1="334.8" y1="92.6" x2="395.4" y2="92.6"/>
      <line class="cls-3" x1="375.3" y1="35.9" x2="375.3" y2="145.2"/>
      <line class="cls-3" x1="355.3" y1="35.9" x2="355.3" y2="145.2"/>
      <line class="cls-3" x1="365.1" y1="26.7" x2="365.1" y2="145.2"/>
      <line class="cls-3" x1="334.8" y1="53.8" x2="395.4" y2="53.8"/>
      <polygon class="cls-1" points="281.1 82.5 184 82.5 184 147.1 288.1 147.1 288.1 82.5 281.1 82.5"/>
      <line class="cls-3" x1="395.4" y1="35.9" x2="334.8" y2="35.9"/>
      <g>
        <polygon class="cls-9" points="295.3 64.4 295.3 146.4 288.1 146.4 288.1 66.7 295.3 64.4"/>
        <polygon class="cls-9" points="335 53 309 55.6 275.7 72.5 275.7 78.6 309 61.1 335 58.3 335 53"/>
      </g>
      <line class="cls-3" x1="334.8" y1="112.1" x2="395.4" y2="112.1"/>
      <path class="cls-7" d="M389.8,145h66.1V35.6s-11.5-1.7-33-1.7-33,1.7-33,1.7v109.4Z"/>
      <g>
        <g class="cls-17">
          <g>
            <rect class="cls-6" x="392.8" y="46.5" width="6" height="17"/>
            <rect class="cls-6" x="400.5" y="46.5" width="6" height="17"/>
            <rect class="cls-6" x="408.2" y="46.5" width="6" height="17"/>
            <rect class="cls-6" x="415.9" y="46.5" width="6" height="17"/>
            <rect class="cls-6" x="392.8" y="74.1" width="6" height="17"/>
            <rect class="cls-6" x="400.5" y="74.1" width="6" height="17"/>
            <rect class="cls-6" x="408.2" y="74.1" width="6" height="17"/>
            <rect class="cls-6" x="415.9" y="74.1" width="6" height="17"/>
          </g>
        </g>
        <g class="cls-8">
          <g>
            <rect class="cls-6" x="423.9" y="46.5" width="6" height="17"/>
            <rect class="cls-6" x="431.6" y="46.5" width="6" height="17"/>
            <rect class="cls-6" x="439.3" y="46.5" width="6" height="17"/>
            <rect class="cls-6" x="447" y="46.5" width="6" height="17"/>
            <rect class="cls-6" x="423.9" y="74.1" width="6" height="17"/>
            <rect class="cls-6" x="431.6" y="74.1" width="6" height="17"/>
            <rect class="cls-6" x="439.3" y="74.1" width="6" height="17"/>
            <rect class="cls-6" x="447" y="74.1" width="6" height="17"/>
          </g>
        </g>
        <g class="cls-14">
          <g>
            <rect class="cls-6" x="392.9" y="99.6" width="6" height="17"/>
            <rect class="cls-6" x="400.6" y="99.6" width="6" height="17"/>
            <rect class="cls-6" x="408.3" y="99.6" width="6" height="17"/>
            <rect class="cls-6" x="416" y="99.6" width="6" height="17"/>
            <rect class="cls-6" x="392.9" y="127.3" width="6" height="17"/>
            <rect class="cls-6" x="400.6" y="127.3" width="6" height="17"/>
            <rect class="cls-6" x="408.3" y="127.3" width="6" height="17"/>
            <rect class="cls-6" x="416" y="127.3" width="6" height="17"/>
          </g>
        </g>
        <g class="cls-11">
          <g>
            <rect class="cls-6" x="424" y="99.6" width="6" height="17"/>
            <rect class="cls-6" x="431.7" y="99.6" width="6" height="17"/>
            <rect class="cls-6" x="439.4" y="99.6" width="6" height="17"/>
            <rect class="cls-6" x="447.1" y="99.6" width="6" height="17"/>
            <rect class="cls-6" x="424" y="127.3" width="6" height="17"/>
            <rect class="cls-6" x="431.7" y="127.3" width="6" height="17"/>
            <rect class="cls-6" x="439.4" y="127.3" width="6" height="17"/>
            <rect class="cls-6" x="447.1" y="127.3" width="6" height="17"/>
          </g>
        </g>
      </g>
      <line class="cls-3" x1="455.7" y1="73.2" x2="510.5" y2="73.2"/>
      <line class="cls-3" x1="455.7" y1="92.6" x2="510.5" y2="92.6"/>
      <line class="cls-3" x1="492.3" y1="35.9" x2="492.3" y2="145.2"/>
      <line class="cls-3" x1="474.2" y1="35.9" x2="474.2" y2="145.2"/>
      <line class="cls-3" x1="483.1" y1="26.7" x2="483.1" y2="145.2"/>
      <line class="cls-3" x1="455.7" y1="53.8" x2="510.5" y2="53.8"/>
      <line class="cls-3" x1="510.5" y1="35.9" x2="455.7" y2="35.9"/>
      <line class="cls-3" x1="455.7" y1="112.1" x2="510.5" y2="112.1"/>
      <line class="cls-3" x1="511" y1="73.2" x2="565.8" y2="73.2"/>
      <line class="cls-3" x1="511" y1="92.6" x2="565.8" y2="92.6"/>
      <line class="cls-3" x1="547.6" y1="35.9" x2="547.6" y2="145.2"/>
      <line class="cls-3" x1="529.5" y1="35.9" x2="529.5" y2="145.2"/>
      <line class="cls-3" x1="538.4" y1="26.7" x2="538.4" y2="145.2"/>
      <line class="cls-3" x1="511" y1="53.8" x2="565.8" y2="53.8"/>
      <line class="cls-3" x1="565.8" y1="35.9" x2="511" y2="35.9"/>
      <line class="cls-3" x1="511" y1="112.1" x2="565.8" y2="112.1"/>
      <line class="cls-3" x1="566.3" y1="73.2" x2="621.1" y2="73.2"/>
      <line class="cls-3" x1="566.3" y1="92.6" x2="621.1" y2="92.6"/>
      <line class="cls-3" x1="602.9" y1="35.9" x2="602.9" y2="145.2"/>
      <line class="cls-3" x1="584.8" y1="35.9" x2="584.8" y2="145.2"/>
      <line class="cls-3" x1="593.7" y1="26.7" x2="593.7" y2="145.2"/>
      <line class="cls-3" x1="566.3" y1="53.8" x2="621.1" y2="53.8"/>
      <line class="cls-3" x1="621.1" y1="35.9" x2="566.3" y2="35.9"/>
      <line class="cls-3" x1="566.3" y1="112.1" x2="621.1" y2="112.1"/>
      <line class="cls-3" x1="621.6" y1="73.2" x2="676.4" y2="73.2"/>
      <line class="cls-3" x1="621.6" y1="92.6" x2="676.4" y2="92.6"/>
      <line class="cls-3" x1="658.2" y1="35.9" x2="658.2" y2="145.2"/>
      <line class="cls-3" x1="640.1" y1="35.9" x2="640.1" y2="145.2"/>
      <line class="cls-3" x1="649" y1="26.7" x2="649" y2="145.2"/>
      <line class="cls-3" x1="621.6" y1="53.8" x2="676.4" y2="53.8"/>
      <line class="cls-3" x1="676.4" y1="35.9" x2="621.6" y2="35.9"/>
      <line class="cls-3" x1="621.6" y1="112.1" x2="676.4" y2="112.1"/>
      <line class="cls-5" x1="510.7" y1="35.8" x2="510.7" y2="145.2"/>
      <line class="cls-5" x1="566" y1="35.8" x2="566" y2="145.2"/>
      <line class="cls-5" x1="621.3" y1="35.8" x2="621.3" y2="145.2"/>
      <g>
        <polygon class="cls-13" points="0 154.1 232 154.1 232 0 .7 0 0 154.1"/>
        <rect class="cls-10" width="232" height="152.8"/>
      </g>
    </g>
  </g>
</svg>