<?xml version="1.0" encoding="UTF-8"?>
<svg xmlns="http://www.w3.org/2000/svg" version="1.1" xmlns:xlink="http://www.w3.org/1999/xlink" viewBox="0 0 676.4 154.1">
  <defs>
    <style>
      .cls-1 {
        fill: #e6e6e5;
      }

      .cls-2 {
        fill: #a19078;
      }

      .cls-3 {
        stroke-width: .2px;
      }

      .cls-3, .cls-4, .cls-5 {
        fill: none;
      }

      .cls-3, .cls-5 {
        stroke: #71acca;
        stroke-miterlimit: 10;
      }

      .cls-6 {
        fill: #136cb2;
      }

      .cls-7 {
        fill: #003057;
      }

      .cls-8 {
        clip-path: url(#clippath-1);
      }

      .cls-9 {
        fill: #09598d;
      }

      .cls-10 {
        fill: url(#PLS);
      }

      .cls-11 {
        clip-path: url(#clippath-3);
      }

      .cls-12 {
        fill: #273c63;
      }

      .cls-13 {
        fill: #fff5ec;
      }

      .cls-14 {
        clip-path: url(#clippath-2);
      }

      .cls-15 {
        fill: #cfc1a7;
      }

      .cls-16 {
        fill: #4867a1;
      }

      .cls-17 {
        clip-path: url(#clippath);
      }
    </style>
    <clipPath id="clippath">
      <rect class="cls-4" x="254.2" y="46.4" width="29.4" height="44.6"/>
    </clipPath>
    <clipPath id="clippath-1">
      <rect class="cls-4" x="223.1" y="46.4" width="29.4" height="44.6"/>
    </clipPath>
    <clipPath id="clippath-2">
      <rect class="cls-4" x="254.1" y="99.7" width="29.4" height="44.6"/>
    </clipPath>
    <clipPath id="clippath-3">
      <rect class="cls-4" x="223" y="99.7" width="29.4" height="44.6"/>
    </clipPath>
    <pattern id="PLS" x="0" y="0" width="342" height="334.6" patternTransform="translate(-22665.3 10421) scale(.5 .6)" patternUnits="userSpaceOnUse" viewBox="0 0 342 334.6">
      <g>
        <rect class="cls-4" width="342" height="334.6"/>
        <g>
          <rect class="cls-4" width="342" height="334.6"/>
          <g>
            <rect class="cls-4" width="342" height="334.6"/>
            <g>
              <polygon class="cls-15" points="327.1 314.4 334.5 320.6 341.8 314.4 341.8 273.9 334.5 267.7 327.1 273.9 327.1 314.4"/>
              <polygon class="cls-2" points="329.8 290 334.5 294.1 339.1 290 339.1 275.3 334.5 271.2 329.8 275.3 329.8 290"/>
              <polygon class="cls-2" points="329.8 314.2 334.5 318.3 339.1 314.2 339.1 299.5 334.5 295.3 329.8 299.5 329.8 314.2"/>
              <polygon class="cls-15" points="335.8 333.4 343.2 338.8 350.6 333.2 350.6 322.9 343.2 316.7 335.8 322.9 335.8 333.4"/>
              <polygon class="cls-2" points="338.5 331.1 343.2 334.6 347.9 331.1 347.9 324.4 343.2 320.9 338.5 324.4 338.5 331.1"/>
              <polygon class="cls-15" points="309.9 314.4 317.3 320.6 324.7 314.4 324.7 273.9 317.3 267.7 309.9 273.9 309.9 314.4"/>
              <polygon class="cls-2" points="312.6 290 317.3 294.1 322 290 322 275.3 317.3 271.2 312.6 275.3 312.6 290"/>
              <polygon class="cls-2" points="312.6 314.2 317.3 318.3 322 314.2 322 299.5 317.3 295.3 312.6 299.5 312.6 314.2"/>
              <polygon class="cls-15" points="301.6 333.4 309 338.8 316.4 333.2 316.4 322.9 309 316.7 301.6 322.9 301.6 333.4"/>
              <polygon class="cls-2" points="304.3 331.1 309 334.6 313.7 331.1 313.7 324.4 309 320.9 304.3 324.4 304.3 331.1"/>
              <polygon class="cls-12" points="292.8 314.4 300.2 320.6 307.6 314.4 307.6 273.9 300.2 267.7 292.8 273.9 292.8 314.4"/>
              <polygon class="cls-16" points="295.4 314.4 305 314.4 305 295.3 295.4 295.3 295.4 314.4"/>
            </g>
            <g>
              <polygon class="cls-15" points="173.2 314.4 180.6 320.6 188 314.4 188 273.9 180.6 267.7 173.2 273.9 173.2 314.4"/>
              <polygon class="cls-2" points="175.9 290 180.6 294.1 185.3 290 185.3 275.3 180.6 271.2 175.9 275.3 175.9 290"/>
              <polygon class="cls-2" points="175.9 314.2 180.6 318.3 185.3 314.2 185.3 299.5 180.6 295.3 175.9 299.5 175.9 314.2"/>
              <polygon class="cls-15" points="156.1 314.4 163.4 320.6 170.8 314.4 170.8 273.9 163.4 267.7 156.1 273.9 156.1 314.4"/>
              <polygon class="cls-2" points="158.8 290 163.4 294.1 168.1 290 168.1 275.3 163.4 271.2 158.8 275.3 158.8 290"/>
              <polygon class="cls-2" points="158.8 314.2 163.4 318.3 168.1 314.2 168.1 299.5 163.4 295.3 158.8 299.5 158.8 314.2"/>
              <polygon class="cls-15" points="164.8 333.4 172.2 338.8 179.6 333.2 179.6 322.9 172.2 316.7 164.8 322.9 164.8 333.4"/>
              <polygon class="cls-2" points="167.5 331.1 172.2 334.6 176.9 331.1 176.9 324.4 172.2 320.9 167.5 324.4 167.5 331.1"/>
              <polygon class="cls-15" points="138.9 314.4 146.3 320.6 153.7 314.4 153.7 273.9 146.3 267.7 138.9 273.9 138.9 314.4"/>
              <polygon class="cls-2" points="141.6 290 146.3 294.1 151 290 151 275.3 146.3 271.2 141.6 275.3 141.6 290"/>
              <polygon class="cls-2" points="141.6 314.2 146.3 318.3 151 314.2 151 299.5 146.3 295.3 141.6 299.5 141.6 314.2"/>
              <polygon class="cls-15" points="130.6 333.4 138 338.8 145.4 333.2 145.4 322.9 138 316.7 130.6 322.9 130.6 333.4"/>
              <polygon class="cls-2" points="133.3 331.1 138 334.6 142.7 331.1 142.7 324.4 138 320.9 133.3 324.4 133.3 331.1"/>
              <polygon class="cls-12" points="121.8 314.4 129.2 320.6 136.6 314.4 136.6 273.9 129.2 267.7 121.8 273.9 121.8 314.4"/>
              <polygon class="cls-16" points="124.4 314.4 134.1 314.4 134.1 295.3 124.4 295.3 124.4 314.4"/>
              <polygon class="cls-15" points="205.1 314.4 197.7 320.6 190.3 314.4 190.3 273.9 197.7 267.7 205.1 273.9 205.1 314.4"/>
              <polygon class="cls-2" points="202.4 290 197.7 294.1 193 290 193 275.3 197.7 271.2 202.4 275.3 202.4 290"/>
              <polygon class="cls-2" points="202.4 314.2 197.7 318.3 193 314.2 193 299.5 197.7 295.3 202.4 299.5 202.4 314.2"/>
              <polygon class="cls-15" points="213.8 333.4 206.4 338.8 199 333.2 199 322.9 206.4 316.7 213.8 322.9 213.8 333.4"/>
              <polygon class="cls-2" points="211.1 331.1 206.4 334.6 201.7 331.1 201.7 324.4 206.4 320.9 211.1 324.4 211.1 331.1"/>
              <polygon class="cls-12" points="222.2 314.4 214.8 320.6 207.4 314.4 207.4 273.9 214.8 267.7 222.2 273.9 222.2 314.4"/>
              <rect class="cls-16" x="210" y="295.3" width="9.7" height="19.1"/>
              <polygon class="cls-15" points="241.6 314.4 249 320.6 256.4 314.4 256.4 273.9 249 267.7 241.6 273.9 241.6 314.4"/>
              <polygon class="cls-2" points="244.3 290 249 294.1 253.7 290 253.7 275.3 249 271.2 244.3 275.3 244.3 290"/>
              <polygon class="cls-2" points="244.3 314.2 249 318.3 253.7 314.2 253.7 299.5 249 295.3 244.3 299.5 244.3 314.2"/>
              <polygon class="cls-15" points="224.5 314.4 231.9 320.6 239.3 314.4 239.3 273.9 231.9 267.7 224.5 273.9 224.5 314.4"/>
              <polygon class="cls-2" points="227.2 290 231.9 294.1 236.6 290 236.6 275.3 231.9 271.2 227.2 275.3 227.2 290"/>
              <polygon class="cls-2" points="227.2 314.2 231.9 318.3 236.6 314.2 236.6 299.5 231.9 295.3 227.2 299.5 227.2 314.2"/>
              <polygon class="cls-15" points="233.1 333.4 240.5 338.8 247.9 333.2 247.9 322.9 240.5 316.7 233.1 322.9 233.1 333.4"/>
              <polygon class="cls-2" points="235.8 331.1 240.5 334.6 245.2 331.1 245.2 324.4 240.5 320.9 235.8 324.4 235.8 331.1"/>
              <polygon class="cls-15" points="275.9 314.4 283.3 320.6 290.7 314.4 290.7 273.9 283.3 267.7 275.9 273.9 275.9 314.4"/>
              <polygon class="cls-2" points="278.6 290 283.3 294.1 288 290 288 275.3 283.3 271.2 278.6 275.3 278.6 290"/>
              <polygon class="cls-2" points="278.6 314.2 283.3 318.3 288 314.2 288 299.5 283.3 295.3 278.6 299.5 278.6 314.2"/>
              <polygon class="cls-15" points="258.8 314.4 266.1 320.6 273.5 314.4 273.5 273.9 266.1 267.7 258.8 273.9 258.8 314.4"/>
              <polygon class="cls-2" points="261.5 290 266.1 294.1 270.9 290 270.9 275.3 266.1 271.2 261.5 275.3 261.5 290"/>
              <polygon class="cls-2" points="261.5 314.2 266.1 318.3 270.9 314.2 270.9 299.5 266.1 295.3 261.5 299.5 261.5 314.2"/>
              <polygon class="cls-15" points="267.3 333.4 274.7 338.8 282.1 333.2 282.1 322.9 274.7 316.7 267.3 322.9 267.3 333.4"/>
              <polygon class="cls-2" points="270 331.1 274.7 334.6 279.4 331.1 279.4 324.4 274.7 320.9 270 324.4 270 331.1"/>
            </g>
            <g>
              <polygon class="cls-15" points="2.2 314.4 9.6 320.6 17 314.4 17 273.9 9.6 267.7 2.2 273.9 2.2 314.4"/>
              <polygon class="cls-2" points="4.9 290 9.6 294.1 14.3 290 14.3 275.3 9.6 271.2 4.9 275.3 4.9 290"/>
              <polygon class="cls-2" points="4.9 314.2 9.6 318.3 14.3 314.2 14.3 299.5 9.6 295.3 4.9 299.5 4.9 314.2"/>
              <polygon class="cls-15" points="-6.2 333.4 1.2 338.8 8.6 333.2 8.6 322.9 1.2 316.7 -6.2 322.9 -6.2 333.4"/>
              <polygon class="cls-2" points="-3.5 331.1 1.2 334.6 5.9 331.1 5.9 324.4 1.2 320.9 -3.5 324.4 -3.5 331.1"/>
              <polygon class="cls-15" points="34.1 314.4 26.7 320.6 19.3 314.4 19.3 273.9 26.7 267.7 34.1 273.9 34.1 314.4"/>
              <polygon class="cls-2" points="31.4 290 26.7 294.1 22 290 22 275.3 26.7 271.2 31.4 275.3 31.4 290"/>
              <polygon class="cls-2" points="31.4 314.2 26.7 318.3 22 314.2 22 299.5 26.7 295.3 31.4 299.5 31.4 314.2"/>
              <polygon class="cls-15" points="42.8 333.4 35.3 338.8 28 333.2 28 322.9 35.3 316.7 42.8 322.9 42.8 333.4"/>
              <polygon class="cls-2" points="40 331.1 35.3 334.6 30.7 331.1 30.7 324.4 35.3 320.9 40 324.4 40 331.1"/>
              <polygon class="cls-12" points="51.2 314.4 43.8 320.6 36.4 314.4 36.4 273.9 43.8 267.7 51.2 273.9 51.2 314.4"/>
              <rect class="cls-16" x="39" y="295.3" width="9.7" height="19.1"/>
              <polygon class="cls-15" points="70.6 314.4 78 320.6 85.4 314.4 85.4 273.9 78 267.7 70.6 273.9 70.6 314.4"/>
              <polygon class="cls-2" points="73.3 290 78 294.1 82.7 290 82.7 275.3 78 271.2 73.3 275.3 73.3 290"/>
              <polygon class="cls-2" points="73.3 314.2 78 318.3 82.7 314.2 82.7 299.5 78 295.3 73.3 299.5 73.3 314.2"/>
              <polygon class="cls-15" points="53.5 314.4 60.9 320.6 68.3 314.4 68.3 273.9 60.9 267.7 53.5 273.9 53.5 314.4"/>
              <polygon class="cls-2" points="56.2 290 60.9 294.1 65.6 290 65.6 275.3 60.9 271.2 56.2 275.3 56.2 290"/>
              <polygon class="cls-2" points="56.2 314.2 60.9 318.3 65.6 314.2 65.6 299.5 60.9 295.3 56.2 299.5 56.2 314.2"/>
              <polygon class="cls-15" points="62.1 333.4 69.5 338.8 76.9 333.2 76.9 322.9 69.5 316.7 62.1 322.9 62.1 333.4"/>
              <polygon class="cls-2" points="64.8 331.1 69.5 334.6 74.2 331.1 74.2 324.4 69.5 320.9 64.8 324.4 64.8 331.1"/>
              <polygon class="cls-15" points="104.9 314.4 112.3 320.6 119.7 314.4 119.7 273.9 112.3 267.7 104.9 273.9 104.9 314.4"/>
              <polygon class="cls-2" points="107.6 290 112.3 294.1 117 290 117 275.3 112.3 271.2 107.6 275.3 107.6 290"/>
              <polygon class="cls-2" points="107.6 314.2 112.3 318.3 117 314.2 117 299.5 112.3 295.3 107.6 299.5 107.6 314.2"/>
              <polygon class="cls-15" points="87.8 314.4 95.2 320.6 102.6 314.4 102.6 273.9 95.2 267.7 87.8 273.9 87.8 314.4"/>
              <polygon class="cls-2" points="90.5 290 95.2 294.1 99.8 290 99.8 275.3 95.2 271.2 90.5 275.3 90.5 290"/>
              <polygon class="cls-2" points="90.5 314.2 95.2 318.3 99.8 314.2 99.8 299.5 95.2 295.3 90.5 299.5 90.5 314.2"/>
              <polygon class="cls-15" points="96.3 333.4 103.7 338.8 111.1 333.2 111.1 322.9 103.7 316.7 96.3 322.9 96.3 333.4"/>
              <polygon class="cls-2" points="99 331.1 103.7 334.6 108.4 331.1 108.4 324.4 103.7 320.9 99 324.4 99 331.1"/>
            </g>
            <g>
              <polygon class="cls-15" points="241.6 247.5 249 253.7 256.4 247.5 256.4 206.9 249 200.7 241.6 206.9 241.6 247.5"/>
              <polygon class="cls-2" points="244.3 223.1 249 227.2 253.7 223.1 253.7 208.4 249 204.2 244.3 208.4 244.3 223.1"/>
              <polygon class="cls-2" points="244.3 247.2 249 251.4 253.7 247.2 253.7 232.6 249 228.4 244.3 232.6 244.3 247.2"/>
              <polygon class="cls-15" points="224.5 247.5 231.9 253.7 239.2 247.5 239.2 206.9 231.9 200.7 224.5 206.9 224.5 247.5"/>
              <polygon class="cls-2" points="227.2 223.1 231.9 227.2 236.6 223.1 236.6 208.4 231.9 204.2 227.2 208.4 227.2 223.1"/>
              <polygon class="cls-2" points="227.2 247.2 231.9 251.4 236.6 247.2 236.6 232.6 231.9 228.4 227.2 232.6 227.2 247.2"/>
              <polygon class="cls-15" points="233.2 266.5 240.6 271.9 248 266.3 248 256 240.6 249.8 233.2 256 233.2 266.5"/>
              <polygon class="cls-2" points="235.9 264.2 240.6 267.7 245.3 264.2 245.3 257.5 240.6 254 235.9 257.5 235.9 264.2"/>
              <polygon class="cls-15" points="207.3 247.5 214.7 253.7 222.1 247.5 222.1 206.9 214.7 200.7 207.3 206.9 207.3 247.5"/>
              <polygon class="cls-2" points="210 223.1 214.7 227.2 219.4 223.1 219.4 208.4 214.7 204.2 210 208.4 210 223.1"/>
              <polygon class="cls-2" points="210 247.2 214.7 251.4 219.4 247.2 219.4 232.6 214.7 228.4 210 232.6 210 247.2"/>
              <polygon class="cls-15" points="199 266.5 206.4 271.9 213.8 266.3 213.8 256 206.4 249.8 199 256 199 266.5"/>
              <polygon class="cls-2" points="201.7 264.2 206.4 267.7 211.1 264.2 211.1 257.5 206.4 254 201.7 257.5 201.7 264.2"/>
              <polygon class="cls-12" points="190.2 247.5 197.6 253.7 205 247.5 205 206.9 197.6 200.7 190.2 206.9 190.2 247.5"/>
              <polygon class="cls-16" points="192.8 247.5 202.4 247.5 202.4 228.4 192.8 228.4 192.8 247.5"/>
              <polygon class="cls-15" points="273.5 247.5 266.1 253.7 258.7 247.5 258.7 206.9 266.1 200.7 273.5 206.9 273.5 247.5"/>
              <polygon class="cls-2" points="270.8 223.1 266.1 227.2 261.4 223.1 261.4 208.4 266.1 204.2 270.8 208.4 270.8 223.1"/>
              <polygon class="cls-2" points="270.8 247.2 266.1 251.4 261.4 247.2 261.4 232.6 266.1 228.4 270.8 232.6 270.8 247.2"/>
              <polygon class="cls-15" points="282.1 266.5 274.8 271.9 267.4 266.3 267.4 256 274.8 249.8 282.1 256 282.1 266.5"/>
              <polygon class="cls-2" points="279.5 264.2 274.8 267.7 270.1 264.2 270.1 257.5 274.8 254 279.5 257.5 279.5 264.2"/>
              <polygon class="cls-12" points="290.6 247.5 283.2 253.7 275.8 247.5 275.8 206.9 283.2 200.7 290.6 206.9 290.6 247.5"/>
              <rect class="cls-16" x="278.4" y="228.4" width="9.7" height="19.1"/>
              <polygon class="cls-15" points="310 247.5 317.4 253.7 324.8 247.5 324.8 206.9 317.4 200.7 310 206.9 310 247.5"/>
              <polygon class="cls-2" points="312.7 223.1 317.4 227.2 322.1 223.1 322.1 208.4 317.4 204.2 312.7 208.4 312.7 223.1"/>
              <polygon class="cls-2" points="312.7 247.2 317.4 251.4 322.1 247.2 322.1 232.6 317.4 228.4 312.7 232.6 312.7 247.2"/>
              <polygon class="cls-15" points="292.9 247.5 300.3 253.7 307.7 247.5 307.7 206.9 300.3 200.7 292.9 206.9 292.9 247.5"/>
              <polygon class="cls-2" points="295.6 223.1 300.3 227.2 305 223.1 305 208.4 300.3 204.2 295.6 208.4 295.6 223.1"/>
              <polygon class="cls-2" points="295.6 247.2 300.3 251.4 305 247.2 305 232.6 300.3 228.4 295.6 232.6 295.6 247.2"/>
              <polygon class="cls-15" points="301.5 266.5 308.9 271.9 316.3 266.3 316.3 256 308.9 249.8 301.5 256 301.5 266.5"/>
              <polygon class="cls-2" points="304.2 264.2 308.9 267.7 313.6 264.2 313.6 257.5 308.9 254 304.2 257.5 304.2 264.2"/>
              <polygon class="cls-15" points="327.2 247.5 334.5 253.7 342 247.5 342 206.9 334.5 200.7 327.2 206.9 327.2 247.5"/>
              <polygon class="cls-2" points="329.9 223.1 334.5 227.2 339.2 223.1 339.2 208.4 334.5 204.2 329.9 208.4 329.9 223.1"/>
              <polygon class="cls-2" points="329.9 247.2 334.5 251.4 339.2 247.2 339.2 232.6 334.5 228.4 329.9 232.6 329.9 247.2"/>
              <polygon class="cls-15" points="335.7 266.5 343.1 271.9 350.5 266.3 350.5 256 343.1 249.8 335.7 256 335.7 266.5"/>
              <polygon class="cls-2" points="338.4 264.2 343.1 267.7 347.8 264.2 347.8 257.5 343.1 254 338.4 257.5 338.4 264.2"/>
            </g>
            <g>
              <polygon class="cls-15" points="70.6 247.5 78 253.7 85.4 247.5 85.4 206.9 78 200.7 70.6 206.9 70.6 247.5"/>
              <polygon class="cls-2" points="73.3 223.1 78 227.2 82.7 223.1 82.7 208.4 78 204.2 73.3 208.4 73.3 223.1"/>
              <polygon class="cls-2" points="73.3 247.2 78 251.4 82.7 247.2 82.7 232.6 78 228.4 73.3 232.6 73.3 247.2"/>
              <polygon class="cls-15" points="53.5 247.5 60.8 253.7 68.2 247.5 68.2 206.9 60.8 200.7 53.5 206.9 53.5 247.5"/>
              <polygon class="cls-2" points="56.2 223.1 60.8 227.2 65.6 223.1 65.6 208.4 60.8 204.2 56.2 208.4 56.2 223.1"/>
              <polygon class="cls-2" points="56.2 247.2 60.8 251.4 65.6 247.2 65.6 232.6 60.8 228.4 56.2 232.6 56.2 247.2"/>
              <polygon class="cls-15" points="62.2 266.5 69.6 271.9 77 266.3 77 256 69.6 249.8 62.2 256 62.2 266.5"/>
              <polygon class="cls-2" points="64.9 264.2 69.6 267.7 74.3 264.2 74.3 257.5 69.6 254 64.9 257.5 64.9 264.2"/>
              <polygon class="cls-15" points="36.3 247.5 43.7 253.7 51.1 247.5 51.1 206.9 43.7 200.7 36.3 206.9 36.3 247.5"/>
              <polygon class="cls-2" points="39 223.1 43.7 227.2 48.4 223.1 48.4 208.4 43.7 204.2 39 208.4 39 223.1"/>
              <polygon class="cls-2" points="39 247.2 43.7 251.4 48.4 247.2 48.4 232.6 43.7 228.4 39 232.6 39 247.2"/>
              <polygon class="cls-15" points="28 266.5 35.4 271.9 42.8 266.3 42.8 256 35.4 249.8 28 256 28 266.5"/>
              <polygon class="cls-2" points="30.7 264.2 35.4 267.7 40.1 264.2 40.1 257.5 35.4 254 30.7 257.5 30.7 264.2"/>
              <polygon class="cls-12" points="19.2 247.5 26.6 253.7 34 247.5 34 206.9 26.6 200.7 19.2 206.9 19.2 247.5"/>
              <polygon class="cls-16" points="21.8 247.5 31.5 247.5 31.5 228.4 21.8 228.4 21.8 247.5"/>
              <polygon class="cls-15" points="102.5 247.5 95.1 253.7 87.7 247.5 87.7 206.9 95.1 200.7 102.5 206.9 102.5 247.5"/>
              <polygon class="cls-2" points="99.8 223.1 95.1 227.2 90.4 223.1 90.4 208.4 95.1 204.2 99.8 208.4 99.8 223.1"/>
              <polygon class="cls-2" points="99.8 247.2 95.1 251.4 90.4 247.2 90.4 232.6 95.1 228.4 99.8 232.6 99.8 247.2"/>
              <polygon class="cls-15" points="111.2 266.5 103.8 271.9 96.4 266.3 96.4 256 103.8 249.8 111.2 256 111.2 266.5"/>
              <polygon class="cls-2" points="108.4 264.2 103.8 267.7 99.1 264.2 99.1 257.5 103.8 254 108.4 257.5 108.4 264.2"/>
              <polygon class="cls-12" points="119.6 247.5 112.2 253.7 104.8 247.5 104.8 206.9 112.2 200.7 119.6 206.9 119.6 247.5"/>
              <rect class="cls-16" x="107.4" y="228.4" width="9.7" height="19.1"/>
              <polygon class="cls-15" points="139 247.5 146.4 253.7 153.8 247.5 153.8 206.9 146.4 200.7 139 206.9 139 247.5"/>
              <polygon class="cls-2" points="141.7 223.1 146.4 227.2 151.1 223.1 151.1 208.4 146.4 204.2 141.7 208.4 141.7 223.1"/>
              <polygon class="cls-2" points="141.7 247.2 146.4 251.4 151.1 247.2 151.1 232.6 146.4 228.4 141.7 232.6 141.7 247.2"/>
              <polygon class="cls-15" points="121.9 247.5 129.3 253.7 136.7 247.5 136.7 206.9 129.3 200.7 121.9 206.9 121.9 247.5"/>
              <polygon class="cls-2" points="124.6 223.1 129.3 227.2 134 223.1 134 208.4 129.3 204.2 124.6 208.4 124.6 223.1"/>
              <polygon class="cls-2" points="124.6 247.2 129.3 251.4 134 247.2 134 232.6 129.3 228.4 124.6 232.6 124.6 247.2"/>
              <polygon class="cls-15" points="130.5 266.5 137.9 271.9 145.3 266.3 145.3 256 137.9 249.8 130.5 256 130.5 266.5"/>
              <polygon class="cls-2" points="133.2 264.2 137.9 267.7 142.6 264.2 142.6 257.5 137.9 254 133.2 257.5 133.2 264.2"/>
              <polygon class="cls-15" points="173.3 247.5 180.7 253.7 188.1 247.5 188.1 206.9 180.7 200.7 173.3 206.9 173.3 247.5"/>
              <polygon class="cls-2" points="176 223.1 180.7 227.2 185.4 223.1 185.4 208.4 180.7 204.2 176 208.4 176 223.1"/>
              <polygon class="cls-2" points="176 247.2 180.7 251.4 185.4 247.2 185.4 232.6 180.7 228.4 176 232.6 176 247.2"/>
              <polygon class="cls-15" points="156.2 247.5 163.6 253.7 170.9 247.5 170.9 206.9 163.6 200.7 156.2 206.9 156.2 247.5"/>
              <polygon class="cls-2" points="158.9 223.1 163.6 227.2 168.2 223.1 168.2 208.4 163.6 204.2 158.9 208.4 158.9 223.1"/>
              <polygon class="cls-2" points="158.9 247.2 163.6 251.4 168.2 247.2 168.2 232.6 163.6 228.4 158.9 232.6 158.9 247.2"/>
              <polygon class="cls-15" points="164.7 266.5 172.1 271.9 179.5 266.3 179.5 256 172.1 249.8 164.7 256 164.7 266.5"/>
              <polygon class="cls-2" points="167.4 264.2 172.1 267.7 176.8 264.2 176.8 257.5 172.1 254 167.4 257.5 167.4 264.2"/>
            </g>
            <g>
              <polygon class="cls-15" points="2.3 247.5 9.7 253.7 17.1 247.5 17.1 206.9 9.7 200.7 2.3 206.9 2.3 247.5"/>
              <polygon class="cls-2" points="5 223.1 9.7 227.2 14.4 223.1 14.4 208.4 9.7 204.2 5 208.4 5 223.1"/>
              <polygon class="cls-2" points="5 247.2 9.7 251.4 14.4 247.2 14.4 232.6 9.7 228.4 5 232.6 5 247.2"/>
              <polygon class="cls-15" points="-6.3 266.5 1.1 271.9 8.5 266.3 8.5 256 1.1 249.8 -6.3 256 -6.3 266.5"/>
              <polygon class="cls-2" points="-3.6 264.2 1.1 267.7 5.8 264.2 5.8 257.5 1.1 254 -3.6 257.5 -3.6 264.2"/>
            </g>
            <g>
              <polygon class="cls-15" points="310 180.6 317.4 186.8 324.8 180.6 324.8 140 317.4 133.8 310 140 310 180.6"/>
              <polygon class="cls-2" points="312.7 156.1 317.4 160.3 322.1 156.1 322.1 141.5 317.4 137.3 312.7 141.5 312.7 156.1"/>
              <polygon class="cls-2" points="312.7 180.3 317.4 184.5 322.1 180.3 322.1 165.6 317.4 161.5 312.7 165.6 312.7 180.3"/>
              <polygon class="cls-15" points="292.9 180.6 300.2 186.8 307.6 180.6 307.6 140 300.2 133.8 292.9 140 292.9 180.6"/>
              <polygon class="cls-2" points="295.6 156.1 300.2 160.3 305 156.1 305 141.5 300.2 137.3 295.6 141.5 295.6 156.1"/>
              <polygon class="cls-2" points="295.6 180.3 300.2 184.5 305 180.3 305 165.6 300.2 161.5 295.6 165.6 295.6 180.3"/>
              <polygon class="cls-15" points="301.6 199.5 309 204.9 316.4 199.3 316.4 189.1 309 182.9 301.6 189.1 301.6 199.5"/>
              <polygon class="cls-2" points="304.3 197.3 309 200.7 313.7 197.3 313.7 190.5 309 187.1 304.3 190.5 304.3 197.3"/>
              <polygon class="cls-15" points="275.7 180.6 283.1 186.8 290.5 180.6 290.5 140 283.1 133.8 275.7 140 275.7 180.6"/>
              <polygon class="cls-2" points="278.4 156.1 283.1 160.3 287.8 156.1 287.8 141.5 283.1 137.3 278.4 141.5 278.4 156.1"/>
              <polygon class="cls-2" points="278.4 180.3 283.1 184.5 287.8 180.3 287.8 165.6 283.1 161.5 278.4 165.6 278.4 180.3"/>
              <polygon class="cls-15" points="267.4 199.5 274.8 204.9 282.2 199.3 282.2 189.1 274.8 182.9 267.4 189.1 267.4 199.5"/>
              <polygon class="cls-2" points="270.1 197.3 274.8 200.7 279.5 197.3 279.5 190.5 274.8 187.1 270.1 190.5 270.1 197.3"/>
              <polygon class="cls-12" points="258.6 180.6 266 186.8 273.4 180.6 273.4 140 266 133.8 258.6 140 258.6 180.6"/>
              <polygon class="cls-16" points="261.2 180.6 270.9 180.6 270.9 161.5 261.2 161.5 261.2 180.6"/>
              <polygon class="cls-15" points="341.9 180.6 334.5 186.8 327.1 180.6 327.1 140 334.5 133.8 341.9 140 341.9 180.6"/>
              <polygon class="cls-2" points="339.2 156.1 334.5 160.3 329.8 156.1 329.8 141.5 334.5 137.3 339.2 141.5 339.2 156.1"/>
              <polygon class="cls-2" points="339.2 180.3 334.5 184.5 329.8 180.3 329.8 165.6 334.5 161.5 339.2 165.6 339.2 180.3"/>
              <polygon class="cls-15" points="350.5 199.5 343.1 204.9 335.8 199.3 335.8 189.1 343.1 182.9 350.5 189.1 350.5 199.5"/>
              <polygon class="cls-2" points="347.9 197.3 343.1 200.7 338.5 197.3 338.5 190.5 343.1 187.1 347.9 190.5 347.9 197.3"/>
            </g>
            <g>
              <polygon class="cls-15" points="139 180.6 146.4 186.8 153.8 180.6 153.8 140 146.4 133.8 139 140 139 180.6"/>
              <polygon class="cls-2" points="141.7 156.1 146.4 160.3 151.1 156.1 151.1 141.5 146.4 137.3 141.7 141.5 141.7 156.1"/>
              <polygon class="cls-2" points="141.7 180.3 146.4 184.5 151.1 180.3 151.1 165.6 146.4 161.5 141.7 165.6 141.7 180.3"/>
              <polygon class="cls-15" points="121.9 180.6 129.2 186.8 136.6 180.6 136.6 140 129.2 133.8 121.9 140 121.9 180.6"/>
              <polygon class="cls-2" points="124.6 156.1 129.2 160.3 133.9 156.1 133.9 141.5 129.2 137.3 124.6 141.5 124.6 156.1"/>
              <polygon class="cls-2" points="124.6 180.3 129.2 184.5 133.9 180.3 133.9 165.6 129.2 161.5 124.6 165.6 124.6 180.3"/>
              <polygon class="cls-15" points="130.6 199.5 138 204.9 145.4 199.3 145.4 189.1 138 182.9 130.6 189.1 130.6 199.5"/>
              <polygon class="cls-2" points="133.3 197.3 138 200.7 142.7 197.3 142.7 190.5 138 187.1 133.3 190.5 133.3 197.3"/>
              <polygon class="cls-15" points="104.7 180.6 112.1 186.8 119.5 180.6 119.5 140 112.1 133.8 104.7 140 104.7 180.6"/>
              <polygon class="cls-2" points="107.4 156.1 112.1 160.3 116.8 156.1 116.8 141.5 112.1 137.3 107.4 141.5 107.4 156.1"/>
              <polygon class="cls-2" points="107.4 180.3 112.1 184.5 116.8 180.3 116.8 165.6 112.1 161.5 107.4 165.6 107.4 180.3"/>
              <polygon class="cls-15" points="96.4 199.5 103.8 204.9 111.2 199.3 111.2 189.1 103.8 182.9 96.4 189.1 96.4 199.5"/>
              <polygon class="cls-2" points="99.1 197.3 103.8 200.7 108.5 197.3 108.5 190.5 103.8 187.1 99.1 190.5 99.1 197.3"/>
              <polygon class="cls-12" points="87.6 180.6 95 186.8 102.4 180.6 102.4 140 95 133.8 87.6 140 87.6 180.6"/>
              <polygon class="cls-16" points="90.2 180.6 99.8 180.6 99.8 161.5 90.2 161.5 90.2 180.6"/>
              <polygon class="cls-15" points="170.9 180.6 163.5 186.8 156.1 180.6 156.1 140 163.5 133.8 170.9 140 170.9 180.6"/>
              <polygon class="cls-2" points="168.2 156.1 163.5 160.3 158.8 156.1 158.8 141.5 163.5 137.3 168.2 141.5 168.2 156.1"/>
              <polygon class="cls-2" points="168.2 180.3 163.5 184.5 158.8 180.3 158.8 165.6 163.5 161.5 168.2 165.6 168.2 180.3"/>
              <polygon class="cls-15" points="179.6 199.5 172.1 204.9 164.8 199.3 164.8 189.1 172.1 182.9 179.6 189.1 179.6 199.5"/>
              <polygon class="cls-2" points="176.9 197.3 172.1 200.7 167.5 197.3 167.5 190.5 172.1 187.1 176.9 190.5 176.9 197.3"/>
              <polygon class="cls-12" points="188 180.6 180.6 186.8 173.2 180.6 173.2 140 180.6 133.8 188 140 188 180.6"/>
              <rect class="cls-16" x="175.8" y="161.5" width="9.7" height="19.1"/>
              <polygon class="cls-15" points="207.4 180.6 214.8 186.8 222.2 180.6 222.2 140 214.8 133.8 207.4 140 207.4 180.6"/>
              <polygon class="cls-2" points="210.1 156.1 214.8 160.3 219.5 156.1 219.5 141.5 214.8 137.3 210.1 141.5 210.1 156.1"/>
              <polygon class="cls-2" points="210.1 180.3 214.8 184.5 219.5 180.3 219.5 165.6 214.8 161.5 210.1 165.6 210.1 180.3"/>
              <polygon class="cls-15" points="190.3 180.6 197.7 186.8 205.1 180.6 205.1 140 197.7 133.8 190.3 140 190.3 180.6"/>
              <polygon class="cls-2" points="193 156.1 197.7 160.3 202.4 156.1 202.4 141.5 197.7 137.3 193 141.5 193 156.1"/>
              <polygon class="cls-2" points="193 180.3 197.7 184.5 202.4 180.3 202.4 165.6 197.7 161.5 193 165.6 193 180.3"/>
              <polygon class="cls-15" points="198.9 199.5 206.3 204.9 213.7 199.3 213.7 189.1 206.3 182.9 198.9 189.1 198.9 199.5"/>
              <polygon class="cls-2" points="201.6 197.3 206.3 200.7 211 197.3 211 190.5 206.3 187.1 201.6 190.5 201.6 197.3"/>
              <polygon class="cls-15" points="241.7 180.6 249.1 186.8 256.5 180.6 256.5 140 249.1 133.8 241.7 140 241.7 180.6"/>
              <polygon class="cls-2" points="244.4 156.1 249.1 160.3 253.8 156.1 253.8 141.5 249.1 137.3 244.4 141.5 244.4 156.1"/>
              <polygon class="cls-2" points="244.4 180.3 249.1 184.5 253.8 180.3 253.8 165.6 249.1 161.5 244.4 165.6 244.4 180.3"/>
              <polygon class="cls-15" points="224.6 180.6 231.9 186.8 239.4 180.6 239.4 140 231.9 133.8 224.6 140 224.6 180.6"/>
              <polygon class="cls-2" points="227.3 156.1 231.9 160.3 236.6 156.1 236.6 141.5 231.9 137.3 227.3 141.5 227.3 156.1"/>
              <polygon class="cls-2" points="227.3 180.3 231.9 184.5 236.6 180.3 236.6 165.6 231.9 161.5 227.3 165.6 227.3 180.3"/>
              <polygon class="cls-15" points="233.1 199.5 240.5 204.9 247.9 199.3 247.9 189.1 240.5 182.9 233.1 189.1 233.1 199.5"/>
              <polygon class="cls-2" points="235.8 197.3 240.5 200.7 245.2 197.3 245.2 190.5 240.5 187.1 235.8 190.5 235.8 197.3"/>
            </g>
            <g>
              <polygon class="cls-15" points="8.6 199.5 1.1 204.9 -6.2 199.3 -6.2 189.1 1.1 182.9 8.6 189.1 8.6 199.5"/>
              <polygon class="cls-2" points="5.8 197.3 1.1 200.7 -3.5 197.3 -3.5 190.5 1.1 187.1 5.8 190.5 5.8 197.3"/>
              <polygon class="cls-12" points="17 180.6 9.6 186.8 2.2 180.6 2.2 140 9.6 133.8 17 140 17 180.6"/>
              <rect class="cls-16" x="4.8" y="161.5" width="9.7" height="19.1"/>
              <polygon class="cls-15" points="36.4 180.6 43.8 186.8 51.2 180.6 51.2 140 43.8 133.8 36.4 140 36.4 180.6"/>
              <polygon class="cls-2" points="39.1 156.1 43.8 160.3 48.5 156.1 48.5 141.5 43.8 137.3 39.1 141.5 39.1 156.1"/>
              <polygon class="cls-2" points="39.1 180.3 43.8 184.5 48.5 180.3 48.5 165.6 43.8 161.5 39.1 165.6 39.1 180.3"/>
              <polygon class="cls-15" points="19.3 180.6 26.7 186.8 34.1 180.6 34.1 140 26.7 133.8 19.3 140 19.3 180.6"/>
              <polygon class="cls-2" points="22 156.1 26.7 160.3 31.4 156.1 31.4 141.5 26.7 137.3 22 141.5 22 156.1"/>
              <polygon class="cls-2" points="22 180.3 26.7 184.5 31.4 180.3 31.4 165.6 26.7 161.5 22 165.6 22 180.3"/>
              <polygon class="cls-15" points="27.9 199.5 35.3 204.9 42.7 199.3 42.7 189.1 35.3 182.9 27.9 189.1 27.9 199.5"/>
              <polygon class="cls-2" points="30.6 197.3 35.3 200.7 40 197.3 40 190.5 35.3 187.1 30.6 190.5 30.6 197.3"/>
              <polygon class="cls-15" points="70.7 180.6 78.1 186.8 85.5 180.6 85.5 140 78.1 133.8 70.7 140 70.7 180.6"/>
              <polygon class="cls-2" points="73.4 156.1 78.1 160.3 82.8 156.1 82.8 141.5 78.1 137.3 73.4 141.5 73.4 156.1"/>
              <polygon class="cls-2" points="73.4 180.3 78.1 184.5 82.8 180.3 82.8 165.6 78.1 161.5 73.4 165.6 73.4 180.3"/>
              <polygon class="cls-15" points="53.6 180.6 61 186.8 68.3 180.6 68.3 140 61 133.8 53.6 140 53.6 180.6"/>
              <polygon class="cls-2" points="56.3 156.1 61 160.3 65.7 156.1 65.7 141.5 61 137.3 56.3 141.5 56.3 156.1"/>
              <polygon class="cls-2" points="56.3 180.3 61 184.5 65.7 180.3 65.7 165.6 61 161.5 56.3 165.6 56.3 180.3"/>
              <polygon class="cls-15" points="62.1 199.5 69.5 204.9 76.9 199.3 76.9 189.1 69.5 182.9 62.1 189.1 62.1 199.5"/>
              <polygon class="cls-2" points="64.8 197.3 69.5 200.7 74.2 197.3 74.2 190.5 69.5 187.1 64.8 190.5 64.8 197.3"/>
            </g>
            <g>
              <polygon class="cls-15" points="335.8 132.6 343.2 138 350.6 132.4 350.6 122.1 343.2 115.9 335.8 122.1 335.8 132.6"/>
              <polygon class="cls-2" points="338.5 130.3 343.2 133.8 347.9 130.3 347.9 123.6 343.2 120.1 338.5 123.6 338.5 130.3"/>
              <polygon class="cls-12" points="327 113.6 334.4 119.8 341.8 113.6 341.8 73.1 334.4 66.9 327 73.1 327 113.6"/>
              <polygon class="cls-16" points="329.6 113.6 339.2 113.6 339.2 94.6 329.6 94.6 329.6 113.6"/>
            </g>
            <g>
              <polygon class="cls-15" points="207.4 113.6 214.8 119.8 222.2 113.6 222.2 73.1 214.8 66.9 207.4 73.1 207.4 113.6"/>
              <polygon class="cls-2" points="210.1 89.2 214.8 93.4 219.5 89.2 219.5 74.5 214.8 70.4 210.1 74.5 210.1 89.2"/>
              <polygon class="cls-2" points="210.1 113.4 214.8 117.5 219.5 113.4 219.5 98.7 214.8 94.6 210.1 98.7 210.1 113.4"/>
              <polygon class="cls-15" points="190.3 113.6 197.6 119.8 205 113.6 205 73.1 197.6 66.9 190.3 73.1 190.3 113.6"/>
              <polygon class="cls-2" points="193 89.2 197.6 93.4 202.4 89.2 202.4 74.5 197.6 70.4 193 74.5 193 89.2"/>
              <polygon class="cls-2" points="193 113.4 197.6 117.5 202.4 113.4 202.4 98.7 197.6 94.6 193 98.7 193 113.4"/>
              <polygon class="cls-15" points="199 132.6 206.4 138 213.8 132.4 213.8 122.1 206.4 115.9 199 122.1 199 132.6"/>
              <polygon class="cls-2" points="201.7 130.3 206.4 133.8 211.1 130.3 211.1 123.6 206.4 120.1 201.7 123.6 201.7 130.3"/>
              <polygon class="cls-15" points="173.1 113.6 180.5 119.8 187.9 113.6 187.9 73.1 180.5 66.9 173.1 73.1 173.1 113.6"/>
              <polygon class="cls-2" points="175.8 89.2 180.5 93.4 185.2 89.2 185.2 74.5 180.5 70.4 175.8 74.5 175.8 89.2"/>
              <polygon class="cls-2" points="175.8 113.4 180.5 117.5 185.2 113.4 185.2 98.7 180.5 94.6 175.8 98.7 175.8 113.4"/>
              <polygon class="cls-15" points="164.8 132.6 172.2 138 179.6 132.4 179.6 122.1 172.2 115.9 164.8 122.1 164.8 132.6"/>
              <polygon class="cls-2" points="167.5 130.3 172.2 133.8 176.9 130.3 176.9 123.6 172.2 120.1 167.5 123.6 167.5 130.3"/>
              <polygon class="cls-12" points="156 113.6 163.4 119.8 170.8 113.6 170.8 73.1 163.4 66.9 156 73.1 156 113.6"/>
              <polygon class="cls-16" points="158.6 113.6 168.2 113.6 168.2 94.6 158.6 94.6 158.6 113.6"/>
              <polygon class="cls-15" points="239.3 113.6 231.9 119.8 224.5 113.6 224.5 73.1 231.9 66.9 239.3 73.1 239.3 113.6"/>
              <polygon class="cls-2" points="236.6 89.2 231.9 93.4 227.2 89.2 227.2 74.5 231.9 70.4 236.6 74.5 236.6 89.2"/>
              <polygon class="cls-2" points="236.6 113.4 231.9 117.5 227.2 113.4 227.2 98.7 231.9 94.6 236.6 98.7 236.6 113.4"/>
              <polygon class="cls-15" points="247.9 132.6 240.6 138 233.2 132.4 233.2 122.1 240.6 115.9 247.9 122.1 247.9 132.6"/>
              <polygon class="cls-2" points="245.2 130.3 240.6 133.8 235.9 130.3 235.9 123.6 240.6 120.1 245.2 123.6 245.2 130.3"/>
              <polygon class="cls-12" points="256.4 113.6 249 119.8 241.6 113.6 241.6 73.1 249 66.9 256.4 73.1 256.4 113.6"/>
              <rect class="cls-16" x="244.2" y="94.5" width="9.7" height="19.1"/>
              <polygon class="cls-15" points="275.8 113.6 283.2 119.8 290.6 113.6 290.6 73.1 283.2 66.9 275.8 73.1 275.8 113.6"/>
              <polygon class="cls-2" points="278.5 89.2 283.2 93.4 287.9 89.2 287.9 74.5 283.2 70.4 278.5 74.5 278.5 89.2"/>
              <polygon class="cls-2" points="278.5 113.4 283.2 117.5 287.9 113.4 287.9 98.7 283.2 94.6 278.5 98.7 278.5 113.4"/>
              <polygon class="cls-15" points="258.7 113.6 266.1 119.8 273.5 113.6 273.5 73.1 266.1 66.9 258.7 73.1 258.7 113.6"/>
              <polygon class="cls-2" points="261.4 89.2 266.1 93.4 270.8 89.2 270.8 74.5 266.1 70.4 261.4 74.5 261.4 89.2"/>
              <polygon class="cls-2" points="261.4 113.4 266.1 117.5 270.8 113.4 270.8 98.7 266.1 94.6 261.4 98.7 261.4 113.4"/>
              <polygon class="cls-15" points="267.3 132.6 274.7 138 282.1 132.4 282.1 122.1 274.7 115.9 267.3 122.1 267.3 132.6"/>
              <polygon class="cls-2" points="270 130.3 274.7 133.8 279.4 130.3 279.4 123.6 274.7 120.1 270 123.6 270 130.3"/>
              <polygon class="cls-15" points="310.1 113.6 317.5 119.8 324.9 113.6 324.9 73.1 317.5 66.9 310.1 73.1 310.1 113.6"/>
              <polygon class="cls-2" points="312.8 89.2 317.5 93.4 322.2 89.2 322.2 74.5 317.5 70.4 312.8 74.5 312.8 89.2"/>
              <polygon class="cls-2" points="312.8 113.4 317.5 117.5 322.2 113.4 322.2 98.7 317.5 94.6 312.8 98.7 312.8 113.4"/>
              <polygon class="cls-15" points="293 113.6 300.4 119.8 307.8 113.6 307.8 73.1 300.4 66.9 293 73.1 293 113.6"/>
              <polygon class="cls-2" points="295.7 89.2 300.4 93.4 305 89.2 305 74.5 300.4 70.4 295.7 74.5 295.7 89.2"/>
              <polygon class="cls-2" points="295.7 113.4 300.4 117.5 305 113.4 305 98.7 300.4 94.6 295.7 98.7 295.7 113.4"/>
              <polygon class="cls-15" points="301.5 132.6 308.9 138 316.3 132.4 316.3 122.1 308.9 115.9 301.5 122.1 301.5 132.6"/>
              <polygon class="cls-2" points="304.2 130.3 308.9 133.8 313.6 130.3 313.6 123.6 308.9 120.1 304.2 123.6 304.2 130.3"/>
            </g>
            <g>
              <polygon class="cls-15" points="36.4 113.6 43.8 119.8 51.2 113.6 51.2 73.1 43.8 66.9 36.4 73.1 36.4 113.6"/>
              <polygon class="cls-2" points="39.1 89.2 43.8 93.4 48.5 89.2 48.5 74.5 43.8 70.4 39.1 74.5 39.1 89.2"/>
              <polygon class="cls-2" points="39.1 113.4 43.8 117.5 48.5 113.4 48.5 98.7 43.8 94.6 39.1 98.7 39.1 113.4"/>
              <polygon class="cls-15" points="19.3 113.6 26.6 119.8 34 113.6 34 73.1 26.6 66.9 19.3 73.1 19.3 113.6"/>
              <polygon class="cls-2" points="22 89.2 26.6 93.4 31.4 89.2 31.4 74.5 26.6 70.4 22 74.5 22 89.2"/>
              <polygon class="cls-2" points="22 113.4 26.6 117.5 31.4 113.4 31.4 98.7 26.6 94.6 22 98.7 22 113.4"/>
              <polygon class="cls-15" points="28 132.6 35.4 138 42.8 132.4 42.8 122.1 35.4 115.9 28 122.1 28 132.6"/>
              <polygon class="cls-2" points="30.7 130.3 35.4 133.8 40.1 130.3 40.1 123.6 35.4 120.1 30.7 123.6 30.7 130.3"/>
              <polygon class="cls-15" points="2.1 113.6 9.5 119.8 16.9 113.6 16.9 73.1 9.5 66.9 2.1 73.1 2.1 113.6"/>
              <polygon class="cls-2" points="4.8 89.2 9.5 93.4 14.2 89.2 14.2 74.5 9.5 70.4 4.8 74.5 4.8 89.2"/>
              <polygon class="cls-2" points="4.8 113.4 9.5 117.5 14.2 113.4 14.2 98.7 9.5 94.6 4.8 98.7 4.8 113.4"/>
              <polygon class="cls-15" points="-6.2 132.6 1.2 138 8.6 132.4 8.6 122.1 1.2 115.9 -6.2 122.1 -6.2 132.6"/>
              <polygon class="cls-2" points="-3.5 130.3 1.2 133.8 5.9 130.3 5.9 123.6 1.2 120.1 -3.5 123.6 -3.5 130.3"/>
              <polygon class="cls-15" points="68.3 113.6 60.9 119.8 53.5 113.6 53.5 73.1 60.9 66.9 68.3 73.1 68.3 113.6"/>
              <polygon class="cls-2" points="65.6 89.2 60.9 93.4 56.2 89.2 56.2 74.5 60.9 70.4 65.6 74.5 65.6 89.2"/>
              <polygon class="cls-2" points="65.6 113.4 60.9 117.5 56.2 113.4 56.2 98.7 60.9 94.6 65.6 98.7 65.6 113.4"/>
              <polygon class="cls-15" points="76.9 132.6 69.6 138 62.2 132.4 62.2 122.1 69.6 115.9 76.9 122.1 76.9 132.6"/>
              <polygon class="cls-2" points="74.2 130.3 69.6 133.8 64.9 130.3 64.9 123.6 69.6 120.1 74.2 123.6 74.2 130.3"/>
              <polygon class="cls-12" points="85.4 113.6 78 119.8 70.6 113.6 70.6 73.1 78 66.9 85.4 73.1 85.4 113.6"/>
              <rect class="cls-16" x="73.2" y="94.5" width="9.7" height="19.1"/>
              <polygon class="cls-15" points="104.8 113.6 112.2 119.8 119.6 113.6 119.6 73.1 112.2 66.9 104.8 73.1 104.8 113.6"/>
              <polygon class="cls-2" points="107.5 89.2 112.2 93.4 116.9 89.2 116.9 74.5 112.2 70.4 107.5 74.5 107.5 89.2"/>
              <polygon class="cls-2" points="107.5 113.4 112.2 117.5 116.9 113.4 116.9 98.7 112.2 94.6 107.5 98.7 107.5 113.4"/>
              <polygon class="cls-15" points="87.7 113.6 95.1 119.8 102.5 113.6 102.5 73.1 95.1 66.9 87.7 73.1 87.7 113.6"/>
              <polygon class="cls-2" points="90.4 89.2 95.1 93.4 99.8 89.2 99.8 74.5 95.1 70.4 90.4 74.5 90.4 89.2"/>
              <polygon class="cls-2" points="90.4 113.4 95.1 117.5 99.8 113.4 99.8 98.7 95.1 94.6 90.4 98.7 90.4 113.4"/>
              <polygon class="cls-15" points="96.3 132.6 103.7 138 111.1 132.4 111.1 122.1 103.7 115.9 96.3 122.1 96.3 132.6"/>
              <polygon class="cls-2" points="99 130.3 103.7 133.8 108.4 130.3 108.4 123.6 103.7 120.1 99 123.6 99 130.3"/>
              <polygon class="cls-15" points="139.1 113.6 146.5 119.8 153.9 113.6 153.9 73.1 146.5 66.9 139.1 73.1 139.1 113.6"/>
              <polygon class="cls-2" points="141.8 89.2 146.5 93.4 151.2 89.2 151.2 74.5 146.5 70.4 141.8 74.5 141.8 89.2"/>
              <polygon class="cls-2" points="141.8 113.4 146.5 117.5 151.2 113.4 151.2 98.7 146.5 94.6 141.8 98.7 141.8 113.4"/>
              <polygon class="cls-15" points="122 113.6 129.4 119.8 136.8 113.6 136.8 73.1 129.4 66.9 122 73.1 122 113.6"/>
              <polygon class="cls-2" points="124.7 89.2 129.4 93.4 134.1 89.2 134.1 74.5 129.4 70.4 124.7 74.5 124.7 89.2"/>
              <polygon class="cls-2" points="124.7 113.4 129.4 117.5 134.1 113.4 134.1 98.7 129.4 94.6 124.7 98.7 124.7 113.4"/>
              <polygon class="cls-15" points="130.5 132.6 137.9 138 145.3 132.4 145.3 122.1 137.9 115.9 130.5 122.1 130.5 132.6"/>
              <polygon class="cls-2" points="133.2 130.3 137.9 133.8 142.6 130.3 142.6 123.6 137.9 120.1 133.2 123.6 133.2 130.3"/>
            </g>
            <g>
              <polygon class="cls-15" points="275.8 46.7 283.2 52.9 290.6 46.7 290.6 6.2 283.2 0 275.8 6.2 275.8 46.7"/>
              <polygon class="cls-2" points="278.5 22.3 283.2 26.4 287.9 22.3 287.9 7.6 283.2 3.4 278.5 7.6 278.5 22.3"/>
              <polygon class="cls-2" points="278.5 46.4 283.2 50.6 287.9 46.4 287.9 31.8 283.2 27.6 278.5 31.8 278.5 46.4"/>
              <polygon class="cls-15" points="258.7 46.7 266 52.9 273.4 46.7 273.4 6.2 266 0 258.7 6.2 258.7 46.7"/>
              <polygon class="cls-2" points="261.4 22.3 266 26.4 270.8 22.3 270.8 7.6 266 3.4 261.4 7.6 261.4 22.3"/>
              <polygon class="cls-2" points="261.4 46.4 266 50.6 270.8 46.4 270.8 31.8 266 27.6 261.4 31.8 261.4 46.4"/>
              <polygon class="cls-15" points="267.4 65.7 274.8 71.1 282.2 65.5 282.2 55.2 274.8 49 267.4 55.2 267.4 65.7"/>
              <polygon class="cls-2" points="270.1 63.4 274.8 66.9 279.5 63.4 279.5 56.7 274.8 53.2 270.1 56.7 270.1 63.4"/>
              <polygon class="cls-15" points="241.5 46.7 248.9 52.9 256.3 46.7 256.3 6.2 248.9 0 241.5 6.2 241.5 46.7"/>
              <polygon class="cls-2" points="244.2 22.3 248.9 26.4 253.6 22.3 253.6 7.6 248.9 3.4 244.2 7.6 244.2 22.3"/>
              <polygon class="cls-2" points="244.2 46.4 248.9 50.6 253.6 46.4 253.6 31.8 248.9 27.6 244.2 31.8 244.2 46.4"/>
              <polygon class="cls-15" points="233.2 65.7 240.6 71.1 248 65.5 248 55.2 240.6 49 233.2 55.2 233.2 65.7"/>
              <polygon class="cls-2" points="235.9 63.4 240.6 66.9 245.3 63.4 245.3 56.7 240.6 53.2 235.9 56.7 235.9 63.4"/>
              <polygon class="cls-12" points="224.4 46.7 231.8 52.9 239.2 46.7 239.2 6.2 231.8 0 224.4 6.2 224.4 46.7"/>
              <polygon class="cls-16" points="227 46.7 236.6 46.7 236.6 27.6 227 27.6 227 46.7"/>
              <polygon class="cls-15" points="307.7 46.7 300.3 52.9 292.9 46.7 292.9 6.2 300.3 0 307.7 6.2 307.7 46.7"/>
              <polygon class="cls-2" points="305 22.3 300.3 26.4 295.6 22.3 295.6 7.6 300.3 3.4 305 7.6 305 22.3"/>
              <polygon class="cls-2" points="305 46.4 300.3 50.6 295.6 46.4 295.6 31.8 300.3 27.6 305 31.8 305 46.4"/>
              <polygon class="cls-15" points="316.4 65.7 309 71.1 301.6 65.5 301.6 55.2 309 49 316.4 55.2 316.4 65.7"/>
              <polygon class="cls-2" points="313.6 63.4 309 66.9 304.3 63.4 304.3 56.7 309 53.2 313.6 56.7 313.6 63.4"/>
              <polygon class="cls-12" points="324.8 46.7 317.4 52.9 310 46.7 310 6.2 317.4 0 324.8 6.2 324.8 46.7"/>
              <rect class="cls-16" x="312.6" y="27.6" width="9.7" height="19.1"/>
              <polygon class="cls-15" points="327.1 46.7 334.5 52.9 341.9 46.7 341.9 6.2 334.5 0 327.1 6.2 327.1 46.7"/>
              <polygon class="cls-2" points="329.8 22.3 334.5 26.4 339.2 22.3 339.2 7.6 334.5 3.4 329.8 7.6 329.8 22.3"/>
              <polygon class="cls-2" points="329.8 46.4 334.5 50.6 339.2 46.4 339.2 31.8 334.5 27.6 329.8 31.8 329.8 46.4"/>
              <polygon class="cls-15" points="335.7 65.7 343.1 71.1 350.5 65.5 350.5 55.2 343.1 49 335.7 55.2 335.7 65.7"/>
              <polygon class="cls-2" points="338.4 63.4 343.1 66.9 347.8 63.4 347.8 56.7 343.1 53.2 338.4 56.7 338.4 63.4"/>
            </g>
            <g>
              <polygon class="cls-15" points="104.8 46.7 112.2 52.9 119.6 46.7 119.6 6.2 112.2 0 104.8 6.2 104.8 46.7"/>
              <polygon class="cls-2" points="107.5 22.3 112.2 26.4 116.9 22.3 116.9 7.6 112.2 3.4 107.5 7.6 107.5 22.3"/>
              <polygon class="cls-2" points="107.5 46.4 112.2 50.6 116.9 46.4 116.9 31.8 112.2 27.6 107.5 31.8 107.5 46.4"/>
              <polygon class="cls-15" points="87.7 46.7 95.1 52.9 102.4 46.7 102.4 6.2 95.1 0 87.7 6.2 87.7 46.7"/>
              <polygon class="cls-2" points="90.4 22.3 95.1 26.4 99.8 22.3 99.8 7.6 95.1 3.4 90.4 7.6 90.4 22.3"/>
              <polygon class="cls-2" points="90.4 46.4 95.1 50.6 99.8 46.4 99.8 31.8 95.1 27.6 90.4 31.8 90.4 46.4"/>
              <polygon class="cls-15" points="96.4 65.7 103.8 71.1 111.2 65.5 111.2 55.2 103.8 49 96.4 55.2 96.4 65.7"/>
              <polygon class="cls-2" points="99.1 63.4 103.8 66.9 108.5 63.4 108.5 56.7 103.8 53.2 99.1 56.7 99.1 63.4"/>
              <polygon class="cls-15" points="70.5 46.7 77.9 52.9 85.3 46.7 85.3 6.2 77.9 0 70.5 6.2 70.5 46.7"/>
              <polygon class="cls-2" points="73.2 22.3 77.9 26.4 82.6 22.3 82.6 7.6 77.9 3.4 73.2 7.6 73.2 22.3"/>
              <polygon class="cls-2" points="73.2 46.4 77.9 50.6 82.6 46.4 82.6 31.8 77.9 27.6 73.2 31.8 73.2 46.4"/>
              <polygon class="cls-15" points="62.2 65.7 69.6 71.1 77 65.5 77 55.2 69.6 49 62.2 55.2 62.2 65.7"/>
              <polygon class="cls-2" points="64.9 63.4 69.6 66.9 74.3 63.4 74.3 56.7 69.6 53.2 64.9 56.7 64.9 63.4"/>
              <polygon class="cls-12" points="53.4 46.7 60.8 52.9 68.2 46.7 68.2 6.2 60.8 0 53.4 6.2 53.4 46.7"/>
              <polygon class="cls-16" points="56 46.7 65.7 46.7 65.7 27.6 56 27.6 56 46.7"/>
              <polygon class="cls-15" points="136.7 46.7 129.3 52.9 121.9 46.7 121.9 6.2 129.3 0 136.7 6.2 136.7 46.7"/>
              <polygon class="cls-2" points="134 22.3 129.3 26.4 124.6 22.3 124.6 7.6 129.3 3.4 134 7.6 134 22.3"/>
              <polygon class="cls-2" points="134 46.4 129.3 50.6 124.6 46.4 124.6 31.8 129.3 27.6 134 31.8 134 46.4"/>
              <polygon class="cls-15" points="145.4 65.7 137.9 71.1 130.6 65.5 130.6 55.2 137.9 49 145.4 55.2 145.4 65.7"/>
              <polygon class="cls-2" points="142.6 63.4 137.9 66.9 133.3 63.4 133.3 56.7 137.9 53.2 142.6 56.7 142.6 63.4"/>
              <polygon class="cls-12" points="153.8 46.7 146.4 52.9 139 46.7 139 6.2 146.4 0 153.8 6.2 153.8 46.7"/>
              <rect class="cls-16" x="141.6" y="27.6" width="9.7" height="19.1"/>
              <polygon class="cls-15" points="173.2 46.7 180.6 52.9 188 46.7 188 6.2 180.6 0 173.2 6.2 173.2 46.7"/>
              <polygon class="cls-2" points="175.9 22.3 180.6 26.4 185.3 22.3 185.3 7.6 180.6 3.4 175.9 7.6 175.9 22.3"/>
              <polygon class="cls-2" points="175.9 46.4 180.6 50.6 185.3 46.4 185.3 31.8 180.6 27.6 175.9 31.8 175.9 46.4"/>
              <polygon class="cls-15" points="156.1 46.7 163.5 52.9 170.9 46.7 170.9 6.2 163.5 0 156.1 6.2 156.1 46.7"/>
              <polygon class="cls-2" points="158.8 22.3 163.5 26.4 168.2 22.3 168.2 7.6 163.5 3.4 158.8 7.6 158.8 22.3"/>
              <polygon class="cls-2" points="158.8 46.4 163.5 50.6 168.2 46.4 168.2 31.8 163.5 27.6 158.8 31.8 158.8 46.4"/>
              <polygon class="cls-15" points="164.7 65.7 172.1 71.1 179.5 65.5 179.5 55.2 172.1 49 164.7 55.2 164.7 65.7"/>
              <polygon class="cls-2" points="167.4 63.4 172.1 66.9 176.8 63.4 176.8 56.7 172.1 53.2 167.4 56.7 167.4 63.4"/>
              <polygon class="cls-15" points="207.5 46.7 214.9 52.9 222.3 46.7 222.3 6.2 214.9 0 207.5 6.2 207.5 46.7"/>
              <polygon class="cls-2" points="210.2 22.3 214.9 26.4 219.6 22.3 219.6 7.6 214.9 3.4 210.2 7.6 210.2 22.3"/>
              <polygon class="cls-2" points="210.2 46.4 214.9 50.6 219.6 46.4 219.6 31.8 214.9 27.6 210.2 31.8 210.2 46.4"/>
              <polygon class="cls-15" points="190.4 46.7 197.8 52.9 205.1 46.7 205.1 6.2 197.8 0 190.4 6.2 190.4 46.7"/>
              <polygon class="cls-2" points="193.1 22.3 197.8 26.4 202.4 22.3 202.4 7.6 197.8 3.4 193.1 7.6 193.1 22.3"/>
              <polygon class="cls-2" points="193.1 46.4 197.8 50.6 202.4 46.4 202.4 31.8 197.8 27.6 193.1 31.8 193.1 46.4"/>
              <polygon class="cls-15" points="198.9 65.7 206.3 71.1 213.7 65.5 213.7 55.2 206.3 49 198.9 55.2 198.9 65.7"/>
              <polygon class="cls-2" points="201.6 63.4 206.3 66.9 211 63.4 211 56.7 206.3 53.2 201.6 56.7 201.6 63.4"/>
            </g>
            <g>
              <polygon class="cls-15" points="2.2 46.7 9.6 52.9 17 46.7 17 6.2 9.6 0 2.2 6.2 2.2 46.7"/>
              <polygon class="cls-2" points="4.9 22.3 9.6 26.4 14.3 22.3 14.3 7.6 9.6 3.4 4.9 7.6 4.9 22.3"/>
              <polygon class="cls-2" points="4.9 46.4 9.6 50.6 14.3 46.4 14.3 31.8 9.6 27.6 4.9 31.8 4.9 46.4"/>
              <polygon class="cls-15" points="-6.3 65.7 1.1 71.1 8.5 65.5 8.5 55.2 1.1 49 -6.3 55.2 -6.3 65.7"/>
              <polygon class="cls-2" points="-3.6 63.4 1.1 66.9 5.8 63.4 5.8 56.7 1.1 53.2 -3.6 56.7 -3.6 63.4"/>
              <polygon class="cls-15" points="36.5 46.7 43.9 52.9 51.3 46.7 51.3 6.2 43.9 0 36.5 6.2 36.5 46.7"/>
              <polygon class="cls-2" points="39.2 22.3 43.9 26.4 48.6 22.3 48.6 7.6 43.9 3.4 39.2 7.6 39.2 22.3"/>
              <polygon class="cls-2" points="39.2 46.4 43.9 50.6 48.6 46.4 48.6 31.8 43.9 27.6 39.2 31.8 39.2 46.4"/>
              <polygon class="cls-15" points="19.4 46.7 26.8 52.9 34.2 46.7 34.2 6.2 26.8 0 19.4 6.2 19.4 46.7"/>
              <polygon class="cls-2" points="22.1 22.3 26.8 26.4 31.5 22.3 31.5 7.6 26.8 3.4 22.1 7.6 22.1 22.3"/>
              <polygon class="cls-2" points="22.1 46.4 26.8 50.6 31.5 46.4 31.5 31.8 26.8 27.6 22.1 31.8 22.1 46.4"/>
              <polygon class="cls-15" points="27.9 65.7 35.3 71.1 42.7 65.5 42.7 55.2 35.3 49 27.9 55.2 27.9 65.7"/>
              <polygon class="cls-2" points="30.6 63.4 35.3 66.9 40 63.4 40 56.7 35.3 53.2 30.6 56.7 30.6 63.4"/>
            </g>
            <g>
              <polygon class="cls-15" points="335.8 -1.2 343.2 4.2 350.6 -1.4 350.6 -11.7 343.2 -17.9 335.8 -11.7 335.8 -1.2"/>
              <polygon class="cls-15" points="301.6 -1.2 309 4.2 316.4 -1.4 316.4 -11.7 309 -17.9 301.6 -11.7 301.6 -1.2"/>
            </g>
            <g>
              <polygon class="cls-15" points="164.8 -1.2 172.2 4.2 179.6 -1.4 179.6 -11.7 172.2 -17.9 164.8 -11.7 164.8 -1.2"/>
              <polygon class="cls-15" points="130.6 -1.2 138 4.2 145.4 -1.4 145.4 -11.7 138 -17.9 130.6 -11.7 130.6 -1.2"/>
              <polygon class="cls-15" points="213.8 -1.2 206.4 4.2 199 -1.4 199 -11.7 206.4 -17.9 213.8 -11.7 213.8 -1.2"/>
              <polygon class="cls-15" points="233.1 -1.2 240.5 4.2 247.9 -1.4 247.9 -11.7 240.5 -17.9 233.1 -11.7 233.1 -1.2"/>
              <polygon class="cls-15" points="267.3 -1.2 274.7 4.2 282.1 -1.4 282.1 -11.7 274.7 -17.9 267.3 -11.7 267.3 -1.2"/>
            </g>
            <g>
              <polygon class="cls-15" points="-6.2 -1.2 1.2 4.2 8.6 -1.4 8.6 -11.7 1.2 -17.9 -6.2 -11.7 -6.2 -1.2"/>
              <polygon class="cls-15" points="42.8 -1.2 35.3 4.2 28 -1.4 28 -11.7 35.3 -17.9 42.8 -11.7 42.8 -1.2"/>
              <polygon class="cls-15" points="62.1 -1.2 69.5 4.2 76.9 -1.4 76.9 -11.7 69.5 -17.9 62.1 -11.7 62.1 -1.2"/>
              <polygon class="cls-15" points="96.3 -1.2 103.7 4.2 111.1 -1.4 111.1 -11.7 103.7 -17.9 96.3 -11.7 96.3 -1.2"/>
            </g>
          </g>
        </g>
      </g>
    </pattern>
  </defs>
  <!-- Generator: Adobe Illustrator 28.7.1, SVG Export Plug-In . SVG Version: 1.2.0 Build 142)  -->
  <g>
    <g id="Layer_1">
      <g id="Layer_1-2" data-name="Layer_1">
        <rect class="cls-1" x="166" y="26.7" width="54.7" height="118.5"/>
        <rect class="cls-1" x="110.7" y="26.7" width="54.7" height="118.5"/>
        <rect class="cls-1" x="55.4" y="26.7" width="54.7" height="118.5"/>
        <rect class="cls-1" x=".1" y="26.7" width="54.7" height="118.5"/>
        <rect class="cls-1" x="280.8" y="25.7" width="60.6" height="118.5"/>
        <line class="cls-3" x1="341.6" y1="73.2" x2="281" y2="73.2"/>
        <line class="cls-3" x1="341.6" y1="92.6" x2="281" y2="92.6"/>
        <line class="cls-3" x1="301.1" y1="35.9" x2="301.1" y2="145.2"/>
        <line class="cls-3" x1="321.1" y1="35.9" x2="321.1" y2="145.2"/>
        <line class="cls-3" x1="311.3" y1="26.7" x2="311.3" y2="145.2"/>
        <line class="cls-3" x1="341.6" y1="53.8" x2="281" y2="53.8"/>
        <polygon class="cls-1" points="395.3 82.5 492.4 82.5 492.4 147.1 388.3 147.1 388.3 82.5 395.3 82.5"/>
        <line class="cls-3" x1="281" y1="35.9" x2="341.6" y2="35.9"/>
        <g>
          <polygon class="cls-9" points="381.1 64.4 381.1 146.4 388.3 146.4 388.3 66.7 381.1 64.4"/>
          <polygon class="cls-9" points="341.4 53 367.4 55.6 400.7 72.5 400.7 78.6 367.4 61.1 341.4 58.3 341.4 53"/>
        </g>
        <line class="cls-3" x1="341.6" y1="112.1" x2="281" y2="112.1"/>
        <path class="cls-7" d="M286.6,145h-66.1V35.6s11.5-1.7,33-1.7,33,1.7,33,1.7v109.4h.1Z"/>
        <g>
          <g class="cls-17">
            <g>
              <rect class="cls-6" x="277.6" y="46.5" width="6" height="17"/>
              <rect class="cls-6" x="269.9" y="46.5" width="6" height="17"/>
              <rect class="cls-6" x="262.2" y="46.5" width="6" height="17"/>
              <rect class="cls-6" x="254.5" y="46.5" width="6" height="17"/>
              <rect class="cls-6" x="277.6" y="74.1" width="6" height="17"/>
              <rect class="cls-6" x="269.9" y="74.1" width="6" height="17"/>
              <rect class="cls-6" x="262.2" y="74.1" width="6" height="17"/>
              <rect class="cls-6" x="254.5" y="74.1" width="6" height="17"/>
            </g>
          </g>
          <g class="cls-8">
            <g>
              <rect class="cls-6" x="246.5" y="46.5" width="6" height="17"/>
              <rect class="cls-6" x="238.8" y="46.5" width="6" height="17"/>
              <rect class="cls-6" x="231.1" y="46.5" width="6" height="17"/>
              <rect class="cls-6" x="223.4" y="46.5" width="6" height="17"/>
              <rect class="cls-6" x="246.5" y="74.1" width="6" height="17"/>
              <rect class="cls-6" x="238.8" y="74.1" width="6" height="17"/>
              <rect class="cls-6" x="231.1" y="74.1" width="6" height="17"/>
              <rect class="cls-6" x="223.4" y="74.1" width="6" height="17"/>
            </g>
          </g>
          <g class="cls-14">
            <g>
              <rect class="cls-6" x="277.5" y="99.6" width="6" height="17"/>
              <rect class="cls-6" x="269.8" y="99.6" width="6" height="17"/>
              <rect class="cls-6" x="262.1" y="99.6" width="6" height="17"/>
              <rect class="cls-6" x="254.4" y="99.6" width="6" height="17"/>
              <rect class="cls-6" x="277.5" y="127.3" width="6" height="17"/>
              <rect class="cls-6" x="269.8" y="127.3" width="6" height="17"/>
              <rect class="cls-6" x="262.1" y="127.3" width="6" height="17"/>
              <rect class="cls-6" x="254.4" y="127.3" width="6" height="17"/>
            </g>
          </g>
          <g class="cls-11">
            <g>
              <rect class="cls-6" x="246.4" y="99.6" width="6" height="17"/>
              <rect class="cls-6" x="238.7" y="99.6" width="6" height="17"/>
              <rect class="cls-6" x="231" y="99.6" width="6" height="17"/>
              <rect class="cls-6" x="223.3" y="99.6" width="6" height="17"/>
              <rect class="cls-6" x="246.4" y="127.3" width="6" height="17"/>
              <rect class="cls-6" x="238.7" y="127.3" width="6" height="17"/>
              <rect class="cls-6" x="231" y="127.3" width="6" height="17"/>
              <rect class="cls-6" x="223.3" y="127.3" width="6" height="17"/>
            </g>
          </g>
        </g>
        <line class="cls-3" x1="220.7" y1="73.2" x2="165.9" y2="73.2"/>
        <line class="cls-3" x1="220.7" y1="92.6" x2="165.9" y2="92.6"/>
        <line class="cls-3" x1="184.1" y1="35.9" x2="184.1" y2="145.2"/>
        <line class="cls-3" x1="202.2" y1="35.9" x2="202.2" y2="145.2"/>
        <line class="cls-3" x1="193.3" y1="26.7" x2="193.3" y2="145.2"/>
        <line class="cls-3" x1="220.7" y1="53.8" x2="165.9" y2="53.8"/>
        <line class="cls-3" x1="165.9" y1="35.9" x2="220.7" y2="35.9"/>
        <line class="cls-3" x1="220.7" y1="112.1" x2="165.9" y2="112.1"/>
        <line class="cls-3" x1="165.4" y1="73.2" x2="110.6" y2="73.2"/>
        <line class="cls-3" x1="165.4" y1="92.6" x2="110.6" y2="92.6"/>
        <line class="cls-3" x1="128.8" y1="35.9" x2="128.8" y2="145.2"/>
        <line class="cls-3" x1="146.9" y1="35.9" x2="146.9" y2="145.2"/>
        <line class="cls-3" x1="138" y1="26.7" x2="138" y2="145.2"/>
        <line class="cls-3" x1="165.4" y1="53.8" x2="110.6" y2="53.8"/>
        <line class="cls-3" x1="110.6" y1="35.9" x2="165.4" y2="35.9"/>
        <line class="cls-3" x1="165.4" y1="112.1" x2="110.6" y2="112.1"/>
        <line class="cls-3" x1="110.1" y1="73.2" x2="55.3" y2="73.2"/>
        <line class="cls-3" x1="110.1" y1="92.6" x2="55.3" y2="92.6"/>
        <line class="cls-3" x1="73.5" y1="35.9" x2="73.5" y2="145.2"/>
        <line class="cls-3" x1="91.6" y1="35.9" x2="91.6" y2="145.2"/>
        <line class="cls-3" x1="82.7" y1="26.7" x2="82.7" y2="145.2"/>
        <line class="cls-3" x1="110.1" y1="53.8" x2="55.3" y2="53.8"/>
        <line class="cls-3" x1="55.3" y1="35.9" x2="110.1" y2="35.9"/>
        <line class="cls-3" x1="110.1" y1="112.1" x2="55.3" y2="112.1"/>
        <line class="cls-3" x1="54.8" y1="73.2" y2="73.2"/>
        <line class="cls-3" x1="54.8" y1="92.6" y2="92.6"/>
        <line class="cls-3" x1="18.2" y1="35.9" x2="18.2" y2="145.2"/>
        <line class="cls-3" x1="36.3" y1="35.9" x2="36.3" y2="145.2"/>
        <line class="cls-3" x1="27.4" y1="26.7" x2="27.4" y2="145.2"/>
        <line class="cls-3" x1="54.8" y1="53.8" y2="53.8"/>
        <line class="cls-3" y1="35.9" x2="54.8" y2="35.9"/>
        <line class="cls-3" x1="54.8" y1="112.1" y2="112.1"/>
        <line class="cls-5" x1="165.7" y1="35.8" x2="165.7" y2="145.2"/>
        <line class="cls-5" x1="110.4" y1="35.8" x2="110.4" y2="145.2"/>
        <line class="cls-5" x1="55.1" y1="35.8" x2="55.1" y2="145.2"/>
        <g>
          <polygon class="cls-13" points="676.4 154.1 444.4 154.1 444.4 0 675.7 0 676.4 154.1"/>
          <rect class="cls-10" x="444.4" width="232" height="152.8"/>
        </g>
      </g>
    </g>
  </g>
</svg>