<?xml version="1.0" encoding="UTF-8"?>
<svg xmlns="http://www.w3.org/2000/svg" version="1.1" viewBox="0 0 476.4 476.4">
  <defs>
    <style>
      .cls-1 {
        fill: #f15b24;
      }

      .cls-2 {
        fill: #231f20;
      }
    </style>
  </defs>
  <!-- Generator: Adobe Illustrator 28.7.1, SVG Export Plug-In . SVG Version: 1.2.0 Build 142)  -->
  <g>
    <g id="Layer_5">
      <g>
        <path class="cls-2" d="M264.9,129.4c-4.1-1.9-8.8-1.3-12.3,1.5l-68.9,56.9h0c-.5,0-1-.3-1.5-.3h-68.9c-6.4,0-11.6,5.2-11.6,11.5v83.6c0,6.4,5.2,11.5,11.6,11.5h68.9c.6,0,1.1-.2,1.7-.3,0,0,.1.2.2.2l68.9,51.6c2.1,1.5,4.5,2.3,6.9,2.3s3.5-.4,5.2-1.2c3.9-2,6.4-5.9,6.4-10.3v-196.7c0-4.5-2.5-8.5-6.6-10.4h0Z"/>
        <path class="cls-2" d="M292.5,281.6c-1.8,0-3.6-.7-5-2.1-2.8-2.8-2.8-7.3,0-10.1,9.6-9.6,15-22.5,15-36.1s-6.9-29.9-18.9-39.7c-3.1-2.5-3.5-7-1.1-10,2.5-3.1,7-3.5,10-1.1,15.4,12.5,24.2,31,24.2,50.8s-6.8,33.8-19.1,46.2-3.2,2.1-5,2.1h0Z"/>
        <path class="cls-2" d="M313.5,300c-1.8,0-3.6-.7-5-2.1-2.8-2.8-2.8-7.3,0-10.1,14.3-14.3,22.2-33.4,22.2-53.6s-10.2-44.5-28.1-59c-3.1-2.5-3.5-7-1.1-10,2.5-3.1,7-3.5,10-1.1,21.2,17.2,33.4,42.7,33.4,70s-9.4,46.7-26.4,63.7c-1.4,1.4-3.2,2.1-5,2.1h0Z"/>
        <path class="cls-2" d="M333.6,324.3c-1.8,0-3.6-.7-5-2.1-2.8-2.8-2.8-7.3,0-10.1,20.5-20.5,31.8-47.8,31.8-76.8s-14.7-63.7-40.3-84.5c-3.1-2.5-3.5-7-1.1-10,2.5-3.1,7-3.5,10-1.1,29,23.5,45.6,58.3,45.6,95.6s-12.8,63.7-36,86.9-3.2,2.1-5,2.1h0Z"/>
      </g>
      <path class="cls-1" d="M238.2,0C106.8,0,0,106.9,0,238.2s106.8,238.2,238.2,238.2,238.2-106.9,238.2-238.2S369.6,0,238.2,0ZM47.2,238.2c0-40.7,12.9-78.5,34.8-109.5l265.7,265.7c-31,21.8-68.8,34.8-109.5,34.8-105.3,0-191-85.7-191-191ZM382.7,362.7L113.7,93.7c33.5-28.9,76.9-46.5,124.5-46.5,105.3,0,191,85.7,191,191s-17.6,91-46.5,124.5h0Z"/>
    </g>
  </g>
</svg>