<?xml version="1.0" encoding="UTF-8"?>
<svg id="Layer_5" data-name="Layer 5" xmlns="http://www.w3.org/2000/svg" viewBox="0 0 676.4 565.02">
  <defs>
    <style>
      .cls-1 {
        fill: #fff;
      }

      .cls-2 {
        fill: #f15b24;
      }

      .cls-3 {
        fill: #14264d;
      }
    </style>
  </defs>
  <rect class="cls-3" x="65.83" width="565.02" height="565.02"/>
  <g>
    <path class="cls-1" d="m375.06,173.73c-4.08-1.93-8.78-1.32-12.26,1.54l-68.91,56.93s0,0,0,0c-.51-.07-.95-.3-1.48-.3h-68.92c-6.37,0-11.55,5.18-11.55,11.53v83.59c0,6.36,5.18,11.53,11.55,11.53h68.92c.61,0,1.12-.25,1.7-.34.09.07.12.18.21.25l68.91,51.62c2.06,1.54,4.48,2.32,6.91,2.32,1.77,0,3.52-.4,5.16-1.22,3.94-1.96,6.39-5.91,6.39-10.32v-196.68c0-4.52-2.53-8.53-6.62-10.45Z"/>
    <path class="cls-1" d="m402.64,325.88c-1.82,0-3.65-.7-5.04-2.09-2.78-2.78-2.78-7.29,0-10.07,9.64-9.64,14.96-22.47,14.96-36.09,0-15.47-6.9-29.94-18.94-39.69-3.06-2.48-3.53-6.97-1.06-10.02,2.48-3.07,7-3.53,10.02-1.06,15.4,12.48,24.22,30.98,24.22,50.77,0,17.43-6.79,33.82-19.13,46.16-1.39,1.39-3.21,2.09-5.04,2.09Z"/>
    <path class="cls-1" d="m423.61,344.29c-1.82,0-3.65-.7-5.04-2.09-2.78-2.78-2.78-7.29,0-10.07,14.32-14.32,22.2-33.36,22.2-53.63,0-22.98-10.25-44.48-28.13-58.96-3.06-2.48-3.53-6.97-1.06-10.02,2.48-3.07,7-3.53,10.02-1.06,21.24,17.21,33.42,42.74,33.42,70.04,0,24.07-9.36,46.69-26.38,63.71-1.39,1.39-3.21,2.09-5.04,2.09Z"/>
    <path class="cls-1" d="m443.7,368.65c-1.82,0-3.65-.7-5.04-2.09-2.78-2.78-2.78-7.29,0-10.07,20.52-20.53,31.83-47.82,31.83-76.84,0-32.93-14.69-63.72-40.3-84.48-3.06-2.48-3.53-6.97-1.06-10.02,2.48-3.07,7-3.53,10.02-1.06,28.98,23.48,45.59,58.31,45.59,95.55,0,32.83-12.79,63.69-36.01,86.91-1.39,1.39-3.21,2.09-5.04,2.09Z"/>
  </g>
  <path class="cls-2" d="m348.33,44.3c-131.35,0-238.2,106.85-238.2,238.2s106.85,238.2,238.2,238.2,238.2-106.85,238.2-238.2S479.68,44.3,348.33,44.3Zm-190.99,238.2c0-40.74,12.93-78.46,34.76-109.51l265.73,265.74c-31.04,21.82-68.75,34.76-109.5,34.76-105.3,0-190.99-85.69-190.99-190.99Zm335.52,124.49L223.84,137.98c33.47-28.87,76.94-46.47,124.5-46.47,105.3,0,190.99,85.69,190.99,190.99,0,47.56-17.59,91.02-46.46,124.49Z"/>
</svg>