<svg id="Layer_1" data-name="Layer 1" xmlns="http://www.w3.org/2000/svg" viewBox="0 0 1619 517"><defs><style>.cls-1{fill:#85b23d;stroke:#517211;}.cls-1,.cls-2{stroke-miterlimit:10;stroke-width:5px;}.cls-2{fill:#ddd;stroke:#767676;}</style></defs><title>user-low-occupancy</title><path class="cls-1" d="M258.5,290.5a144,144,0,1,0-144-144A144,144,0,0,0,258.5,290.5Zm128,32H331.4a174.08,174.08,0,0,1-145.8,0H130.5a128,128,0,0,0-128,128v16a48,48,0,0,0,48,48h416a48,48,0,0,0,48-48v-16A128,128,0,0,0,386.5,322.5Z"/><path class="cls-2" d="M809.5,290.5a144,144,0,1,0-144-144A144,144,0,0,0,809.5,290.5Zm128,32H882.4a174.08,174.08,0,0,1-145.8,0H681.5a128,128,0,0,0-128,128v16a48,48,0,0,0,48,48h416a48,48,0,0,0,48-48v-16A128,128,0,0,0,937.5,322.5Z"/><path class="cls-2" d="M1360.5,290.5a144,144,0,1,0-144-144A144,144,0,0,0,1360.5,290.5Zm128,32h-55.1a174.08,174.08,0,0,1-145.8,0h-55.1a128,128,0,0,0-128,128v16a48,48,0,0,0,48,48h416a48,48,0,0,0,48-48v-16A128,128,0,0,0,1488.5,322.5Z"/></svg>